<svg width="31" height="40" viewBox="0 0 31 40" fill="none" xmlns="http://www.w3.org/2000/svg">
<path d="M28.4924 26.8919L28.3974 26.835C28.4587 26.6494 28.4999 26.4556 28.4999 26.25C28.4999 25.7681 28.3118 25.3325 28.0124 25C28.3124 24.6675 28.4999 24.2319 28.4999 23.75C28.4999 22.9363 27.9755 22.2487 27.2499 21.99V18.5375C28.0424 16.8969 28.4999 15.0656 28.4999 13.125C28.4999 6.2325 22.8924 0.625 15.9999 0.625C9.1074 0.625 3.4999 6.2325 3.4999 13.125C3.4999 15.0656 3.9574 16.8969 4.7499 18.5375V21.99C4.02428 22.2487 3.4999 22.9363 3.4999 23.75C3.4999 24.2319 3.68803 24.6675 3.9874 25C3.6874 25.3325 3.4999 25.7681 3.4999 26.25C3.4999 26.3325 3.51365 26.4112 3.52428 26.4906C2.05178 26.8256 0.903028 28.03 0.653653 29.525L0.212402 32.1712L2.2649 31.4869C2.33865 32.3681 2.77865 33.1919 3.48115 33.7356L3.51928 33.765C4.2899 34.3425 4.7499 35.2619 4.7499 36.25V37.4181L7.4499 35.6181C8.8899 34.6581 9.7499 33.0519 9.7499 31.3212C9.7499 29.5175 8.78928 27.8206 7.2424 26.8925L7.1474 26.8356C7.20865 26.6494 7.2499 26.4556 7.2499 26.25C7.2499 25.7681 7.06178 25.3325 6.7624 25C7.0624 24.6675 7.2499 24.2319 7.2499 23.75C7.2499 22.9363 6.72553 22.2487 5.9999 21.99V20.5931C8.16428 23.4831 11.5412 25.4025 15.3749 25.5931V26.99C14.6493 27.2487 14.1249 27.9363 14.1249 28.75C14.1249 28.8325 14.1387 28.9112 14.1493 28.9906C12.6768 29.3256 11.528 30.53 11.2787 32.025L10.8374 34.6712L12.8899 33.9869C12.9637 34.8681 13.4037 35.6919 14.1062 36.2356L14.1443 36.265C14.9149 36.8425 15.3749 37.7619 15.3749 38.75V39.9181L18.0749 38.1181C19.5149 37.1581 20.3749 35.5519 20.3749 33.8213C20.3749 32.0175 19.4143 30.3206 17.8674 29.3925L17.7724 29.3356C17.8337 29.1494 17.8749 28.9556 17.8749 28.75C17.8749 27.9363 17.3505 27.2487 16.6249 26.99V25.5931C20.4587 25.4019 23.8355 23.4831 25.9999 20.5931V21.99C25.2743 22.2487 24.7499 22.9363 24.7499 23.75C24.7499 24.2319 24.938 24.6675 25.2374 25C24.9374 25.3325 24.7499 25.7681 24.7499 26.25C24.7499 26.3325 24.7637 26.4112 24.7743 26.4906C23.3018 26.8256 22.153 28.03 21.9037 29.525L21.4624 32.1712L23.5149 31.4869C23.5886 32.3681 24.0287 33.1919 24.7312 33.7356L24.7693 33.765C25.5399 34.3425 25.9999 35.2619 25.9999 36.25V37.4181L28.6999 35.6181C30.1399 34.6581 30.9999 33.0519 30.9999 31.3212C30.9999 29.5169 30.0393 27.82 28.4924 26.8919ZM5.3749 23.125C5.71928 23.125 5.9999 23.4056 5.9999 23.75C5.9999 24.0944 5.71928 24.375 5.3749 24.375C5.03053 24.375 4.7499 24.0944 4.7499 23.75C4.7499 23.4056 5.03053 23.125 5.3749 23.125ZM5.9999 26.25C5.9999 26.5944 5.71928 26.875 5.3749 26.875C5.03053 26.875 4.7499 26.5944 4.7499 26.25C4.7499 25.9056 5.03053 25.625 5.3749 25.625C5.71928 25.625 5.9999 25.9056 5.9999 26.25ZM6.75678 34.5775L5.86803 35.17C5.63115 34.2344 5.08365 33.3887 4.30678 32.7925L4.26928 32.7638C3.7874 32.4031 3.4999 31.8281 3.4999 31.2263C3.4999 30.9294 3.5699 30.6325 3.70303 30.3669L4.05928 29.6544L2.94115 29.095L2.5849 29.8075C2.53678 29.9038 2.49553 30.0037 2.4574 30.105L1.78678 30.3281L1.88678 29.7294C2.05615 28.7113 2.85053 27.8912 3.86303 27.6887L4.1249 27.6375C4.30553 27.8 4.51615 27.9269 4.7499 28.01V31.875H5.9999V30.7137C7.0749 30.9931 7.8749 31.9638 7.8749 33.125V33.4319C7.5874 33.8794 7.21365 34.2731 6.75678 34.5775ZM8.48053 31.0256C7.9174 30.195 7.02865 29.605 5.9999 29.4319V28.01C6.1324 27.9625 6.25928 27.9044 6.37615 27.83L6.59928 27.9638C7.68678 28.6156 8.38365 29.7706 8.48053 31.0256ZM16.7662 19.8944L15.9999 20.4688L15.2337 19.8937C14.5393 19.3738 14.1249 18.5444 14.1249 17.6769C14.1249 17.2488 14.2262 16.82 14.4174 16.4375L14.6662 15.94C15.0724 16.1331 15.5212 16.25 15.9999 16.25C16.4787 16.25 16.9274 16.1331 17.3337 15.94L17.5824 16.4375C17.7737 16.82 17.8749 17.2488 17.8749 17.6769C17.8749 18.5444 17.4605 19.3737 16.7662 19.8944ZM15.2337 6.35562L15.9999 5.78125L16.7662 6.35625C17.4605 6.87625 17.8749 7.70563 17.8749 8.57312C17.8749 9.00125 17.7737 9.43 17.5824 9.8125L17.3337 10.31C16.9274 10.1169 16.4787 10 15.9999 10C15.5212 10 15.0724 10.1169 14.6662 10.31L14.4174 9.8125C14.2262 9.43 14.1249 9.00125 14.1249 8.57312C14.1249 7.70563 14.5393 6.87625 15.2337 6.35562ZM14.1249 13.125C14.1249 12.0913 14.9662 11.25 15.9999 11.25C17.0337 11.25 17.8749 12.0913 17.8749 13.125C17.8749 14.1587 17.0337 15 15.9999 15C14.9662 15 14.1249 14.1587 14.1249 13.125ZM13.1849 11.7912C12.9918 12.1975 12.8749 12.6462 12.8749 13.125C12.8749 13.6038 12.9918 14.0525 13.1849 14.4588L12.6874 14.7075C12.3049 14.8987 11.8762 15 11.448 15C10.5799 15 9.75115 14.5856 9.23053 13.8912L8.65615 13.125L9.23115 12.3588C9.75115 11.6644 10.5805 11.25 11.448 11.25C11.8762 11.25 12.3049 11.3513 12.6874 11.5425L13.1849 11.7912ZM18.8149 14.4588C19.008 14.0525 19.1249 13.6038 19.1249 13.125C19.1249 12.6462 19.008 12.1975 18.8149 11.7912L19.3124 11.5425C19.6949 11.3513 20.1237 11.25 20.5518 11.25C21.4199 11.25 22.2487 11.6644 22.7693 12.3588L23.3437 13.125L22.7687 13.8912C22.2487 14.5856 21.4193 15 20.5518 15C20.1237 15 19.6949 14.8987 19.3124 14.7075L18.8149 14.4588ZM20.5518 10C20.353 10 20.1555 10.02 19.9593 10.05L21.7218 8.2875C22.383 9.06875 22.8868 9.985 23.1862 10.99C22.4612 10.3619 21.5243 10 20.5518 10ZM19.0749 9.16625C19.1043 8.97 19.1249 8.77188 19.1249 8.57375C19.1249 7.60125 18.763 6.66438 18.1349 5.93937C19.1399 6.23875 20.0568 6.7425 20.8374 7.40375L19.0749 9.16625ZM13.8649 5.93875C13.2368 6.66375 12.8749 7.60063 12.8749 8.57312C12.8749 8.77188 12.8949 8.96937 12.9249 9.16562L11.1624 7.40313C11.943 6.74188 12.8593 6.23812 13.8649 5.93875ZM10.278 8.28687L12.0405 10.0494C11.8443 10.02 11.6468 10 11.448 10C10.4755 10 9.53865 10.3619 8.81365 10.99C9.11303 9.98438 9.61678 9.06812 10.278 8.28687ZM8.81365 15.26C9.53865 15.8881 10.4755 16.25 11.448 16.25C11.6468 16.25 11.8443 16.23 12.0405 16.2L10.278 17.9625C9.61678 17.1819 9.11303 16.2656 8.81365 15.26ZM12.9249 17.0837C12.8949 17.2806 12.8749 17.4781 12.8749 17.6769C12.8749 18.6494 13.2368 19.5863 13.8649 20.3113C12.8599 20.0119 11.943 19.5081 11.1624 18.8469L12.9249 17.0837ZM18.1349 20.3113C18.763 19.5863 19.1249 18.6494 19.1249 17.6769C19.1249 17.4781 19.1049 17.2806 19.0749 17.0844L20.8374 18.8469C20.0568 19.5081 19.1405 20.0119 18.1349 20.3113ZM21.7218 17.9631L19.9593 16.2006C20.1555 16.23 20.3537 16.2506 20.5518 16.2506C21.5243 16.2506 22.4612 15.8888 23.1862 15.2606C22.8868 16.2656 22.383 17.1819 21.7218 17.9631ZM20.9843 5.9425L23.633 5.49187L23.1824 8.14062C22.5855 7.28375 21.8412 6.53938 20.9843 5.9425ZM15.9999 4.375C15.4687 4.375 14.9512 4.43 14.4462 4.52125L15.9999 2.33063L17.5537 4.52125C17.0487 4.43 16.5312 4.375 15.9999 4.375ZM8.8174 8.14062L8.36678 5.49187L11.0155 5.9425C10.1587 6.53938 9.41428 7.28375 8.8174 8.14062ZM7.2499 13.125C7.2499 13.6562 7.3049 14.1737 7.39615 14.6788L5.20553 13.125L7.39615 11.5712C7.3049 12.0763 7.2499 12.5938 7.2499 13.125ZM11.0155 20.3075L8.36678 20.7581L8.8174 18.1094C9.41428 18.9662 10.1587 19.7106 11.0155 20.3075ZM15.9999 21.875C16.5312 21.875 17.0487 21.82 17.5537 21.7287L15.9999 23.9194L14.4462 21.7287C14.9512 21.82 15.4687 21.875 15.9999 21.875ZM23.1824 18.1094L23.633 20.7581L20.9843 20.3075C21.8412 19.7106 22.5855 18.9662 23.1824 18.1094ZM24.7499 13.125C24.7499 12.5938 24.6949 12.0763 24.6037 11.5712L26.7943 13.125L24.6037 14.6788C24.6949 14.1737 24.7499 13.6562 24.7499 13.125ZM24.1787 9.73688L24.793 6.12688C26.0787 7.73875 26.9324 9.7075 27.1743 11.8619L24.1787 9.73688ZM19.388 4.94625L17.2637 1.95063C19.4174 2.1925 21.3862 3.04625 22.9987 4.33188L19.388 4.94625ZM12.6118 4.94625L9.00178 4.33188C10.6137 3.04625 12.5824 2.1925 14.7368 1.95063L12.6118 4.94625ZM7.82115 9.73688L4.82553 11.8612C5.0674 9.7075 5.92115 7.73875 7.20678 6.12625L7.82115 9.73688ZM7.82115 16.5131L7.20678 20.1231C5.92115 18.5112 5.0674 16.5425 4.82553 14.3881L7.82115 16.5131ZM12.6118 21.3037L14.7362 24.2994C12.5824 24.0575 10.6137 23.2038 9.00115 21.9181L12.6118 21.3037ZM19.388 21.3037L22.998 21.9181C21.3862 23.2038 19.4174 24.0575 17.263 24.2994L19.388 21.3037ZM24.1787 16.5131L27.1743 14.3888C26.9324 16.5425 26.0787 18.5113 24.793 20.1238L24.1787 16.5131ZM15.9999 28.125C16.3443 28.125 16.6249 28.4056 16.6249 28.75C16.6249 29.0944 16.3443 29.375 15.9999 29.375C15.6555 29.375 15.3749 29.0944 15.3749 28.75C15.3749 28.4056 15.6555 28.125 15.9999 28.125ZM17.3818 37.0775L16.493 37.67C16.2562 36.7344 15.7087 35.8887 14.9318 35.2925L14.8943 35.2638C14.4124 34.9031 14.1249 34.3281 14.1249 33.7262C14.1249 33.4294 14.1949 33.1325 14.328 32.8669L14.6843 32.1544L13.5662 31.595L13.2099 32.3075C13.1618 32.4038 13.1205 32.5037 13.0824 32.605L12.4118 32.8281L12.5118 32.2294C12.6812 31.2113 13.4755 30.3912 14.488 30.1887L14.7499 30.1375C14.9305 30.3 15.1412 30.4269 15.3749 30.51V34.375H16.6249V33.2137C17.6999 33.4931 18.4999 34.4637 18.4999 35.625V35.9319C18.2124 36.3794 17.8387 36.7731 17.3818 37.0775ZM19.1055 33.5256C18.5424 32.695 17.6537 32.105 16.6249 31.9319V30.51C16.7574 30.4625 16.8843 30.4044 17.0012 30.33L17.2243 30.4638C18.3118 31.1156 19.0087 32.2706 19.1055 33.5256ZM29.7305 31.0256C29.1674 30.195 28.2787 29.605 27.2499 29.4319V28.01C27.3824 27.9625 27.5093 27.9044 27.6262 27.83L27.8493 27.9638C28.9368 28.6156 29.6337 29.7706 29.7305 31.0256ZM27.2499 26.25C27.2499 26.5944 26.9693 26.875 26.6249 26.875C26.2805 26.875 25.9999 26.5944 25.9999 26.25C25.9999 25.9056 26.2805 25.625 26.6249 25.625C26.9693 25.625 27.2499 25.9056 27.2499 26.25ZM26.6249 23.125C26.9693 23.125 27.2499 23.4056 27.2499 23.75C27.2499 24.0944 26.9693 24.375 26.6249 24.375C26.2805 24.375 25.9999 24.0944 25.9999 23.75C25.9999 23.4056 26.2805 23.125 26.6249 23.125ZM28.0068 34.5775L27.118 35.17C26.8812 34.2344 26.3337 33.3887 25.5568 32.7925L25.5193 32.7638C25.0374 32.4031 24.7499 31.8281 24.7499 31.2263C24.7499 30.9294 24.8199 30.6325 24.953 30.3669L25.3093 29.6544L24.1912 29.095L23.8349 29.8075C23.7868 29.9038 23.7455 30.0037 23.7074 30.105L23.0368 30.3281L23.1368 29.7294C23.3062 28.7113 24.1005 27.8912 25.113 27.6887L25.3749 27.6375C25.5555 27.8 25.7662 27.9269 25.9999 28.01V31.875H27.2499V30.7137C28.3249 30.9931 29.1249 31.9638 29.1249 33.125V33.4319C28.8374 33.8794 28.4637 34.2731 28.0068 34.5775Z" fill="#6D5E52"/>
</svg>
