<svg width="44" height="41" viewBox="0 0 44 41" fill="none" xmlns="http://www.w3.org/2000/svg">
<path d="M39.9715 10.6039L32.7029 8.61757C32.7011 8.61711 32.6992 8.61693 32.6974 8.61646C31.8723 5.78802 30.9082 3.38162 30.0589 1.80807C30.0267 1.74849 29.9953 1.68808 29.964 1.62767C29.6822 1.08489 29.2563 0.264404 28.1795 0.264404H19.704C18.6273 0.264404 18.2013 1.08489 17.9195 1.62776C17.8881 1.68808 17.8568 1.74849 17.8243 1.80844C16.9545 3.41787 15.9631 5.90266 15.1242 8.8238L12.4268 9.15694L12.2628 6.98831C12.2022 6.22169 11.597 5.65281 10.9149 5.71959L5.26795 6.25277C4.58464 6.31558 4.07437 6.98997 4.13034 7.75835L4.3112 10.1592L3.16247 10.3011C1.84952 10.4621 0.896484 11.5583 0.896484 12.9072V15.0298V34.4621V37.0552C0.896484 38.4946 1.94325 39.6656 3.2299 39.6656H19.1868C20.6618 40.3082 22.265 40.6615 23.9406 40.6615C25.6163 40.6615 27.2194 40.3082 28.6944 39.6656H34.8369C35.1784 39.6656 35.4552 39.3559 35.4552 38.9739C35.4552 38.5919 35.1784 38.2822 34.8369 38.2822H31.0995C33.3147 36.6656 35.0688 34.3224 36.0899 31.5571C36.1911 31.5664 36.2923 31.5727 36.3932 31.5727C38.435 31.5727 40.096 29.7146 40.096 27.4306C40.096 25.3245 38.6851 23.5815 36.8659 23.3207C36.4903 21.0164 35.6325 18.8981 34.4144 17.1012C34.1502 14.7044 33.6855 12.3358 33.121 10.1559L39.5837 11.922L39.6793 11.948C40.4845 12.1671 41.0662 12.3254 41.3794 12.7017C41.7166 13.1069 41.8669 13.8983 41.8669 15.2676V37.0551C41.8669 37.7316 41.3738 38.2821 40.7677 38.2821H37.6902C37.3487 38.2821 37.0719 38.5918 37.0719 38.9738C37.0719 39.3558 37.3487 39.6655 37.6902 39.6655H40.7677C42.0556 39.6655 43.1035 38.4945 43.1035 37.0551V15.2677C43.1034 11.6257 42.0295 11.1638 39.9715 10.6039ZM16.1649 9.72047C16.176 9.68976 16.1845 9.65784 16.1916 9.62538C17.0182 6.65757 18.0136 4.13192 18.8823 2.52471C18.9185 2.45793 18.9537 2.39023 18.9888 2.32263C19.2727 1.7757 19.3728 1.64787 19.7042 1.64787H28.1796C28.511 1.64787 28.611 1.7757 28.8949 2.32254C28.93 2.39014 28.9652 2.45784 29.001 2.52397C29.8541 4.10453 30.8288 6.56811 31.6454 9.46351C31.6506 9.48602 31.6568 9.50815 31.664 9.52964C32.1626 11.3067 32.6009 13.2445 32.915 15.2401C30.5646 12.7773 27.4076 11.2666 23.9406 11.2666C20.4741 11.2666 17.3174 12.7769 14.9671 15.2393C15.2705 13.3144 15.6885 11.4441 16.1649 9.72047ZM5.36893 7.63162H5.36934C5.36984 7.63162 5.37042 7.63153 5.37099 7.63153L11.0223 7.09798C11.0223 7.09798 11.0304 7.10194 11.0309 7.10766L11.1974 9.30847L5.54073 10.0063L5.36275 7.64398C5.36225 7.6378 5.36844 7.63199 5.36893 7.63162ZM3.2299 38.2822C2.62507 38.2822 2.13301 37.7317 2.13301 37.0552V35.1539H6.35651C7.31465 35.1539 8.09408 34.2807 8.09408 33.2074V26.0765C8.09408 25.6945 7.81726 25.3848 7.47581 25.3848C7.13437 25.3848 6.85755 25.6945 6.85755 26.0765V33.2074C6.85755 33.5179 6.63275 33.7704 6.35651 33.7704H2.13301V15.7216H6.35651C6.63283 15.7216 6.85755 15.973 6.85755 16.282V22.8849C6.85755 23.2669 7.13437 23.5766 7.47581 23.5766C7.81726 23.5766 8.09408 23.2669 8.09408 22.8849V16.282C8.09408 15.2101 7.31457 14.3381 6.35651 14.3381H2.13301V12.9072C2.13301 12.1596 2.73652 11.745 3.29774 11.6761L14.7333 10.2639C14.1817 12.4128 13.7277 14.7427 13.4668 17.1012C11.7953 19.5669 10.802 22.638 10.802 25.9641C10.802 31.1164 13.1847 35.6572 16.7818 38.2822H3.2299ZM23.9406 39.2781C17.3778 39.2781 12.0385 33.3055 12.0385 25.9641C12.0385 18.6227 17.3778 12.6501 23.9406 12.6501C30.5035 12.6501 35.8427 18.6227 35.8427 25.9641C35.8427 33.3055 30.5035 39.2781 23.9406 39.2781ZM38.8594 27.4306C38.8594 28.9018 37.8245 30.1076 36.5261 30.1851C36.8853 28.8475 37.0793 27.4307 37.0793 25.9641C37.0793 25.5602 37.064 25.1603 37.0352 24.7646C38.0847 25.0819 38.8594 26.1567 38.8594 27.4306Z" fill="#6D5E52"/>
</svg>
