<svg width="48" height="48" viewBox="0 0 48 48" fill="none" xmlns="http://www.w3.org/2000/svg">
<path d="M24 47.5C36.9787 47.5 47.5 36.9787 47.5 24C47.5 11.0213 36.9787 0.5 24 0.5C11.0213 0.5 0.5 11.0213 0.5 24C0.5 36.9787 11.0213 47.5 24 47.5Z" stroke="#6D5E52"/>
<path d="M36.4933 16.2538C36.038 15.6556 35.3227 15.3232 34.6073 15.3232H18.5439C18.0887 15.3232 17.6335 15.4562 17.2433 15.722L16.4628 12.7976C16.3328 12.3323 15.9426 12 15.4223 12H14.1867H11.8454C11.3902 12 11 12.3988 11 12.864V12.9305C11 13.3958 11.3902 13.7946 11.8454 13.7946H14.902L16.4628 19.5105L18.674 27.4199C17.4384 27.7522 16.5279 28.8821 16.5279 30.2779C16.5279 31.8066 17.6985 33.0694 19.1943 33.2023C19.0642 33.5346 18.9992 33.9334 19.0642 34.3987C19.1943 35.7945 20.2998 36.9244 21.6656 36.9908C23.2914 37.1238 24.6571 35.7945 24.6571 34.1328C24.6571 33.8005 24.5921 33.4682 24.527 33.2023H27.7787C27.6487 33.6011 27.5836 33.9999 27.6487 34.4652C27.7787 35.7945 28.8843 36.8579 30.25 36.9908C31.8759 37.1238 33.2416 35.7945 33.2416 34.1328C33.2416 32.5377 31.9409 31.2748 30.3801 31.2748H19.3894C18.8691 31.2748 18.4139 30.876 18.4139 30.3443C18.4139 29.7461 18.8691 29.2809 19.3894 29.2809H21.0152H29.9249H32.3961C33.5017 29.2809 34.4772 28.4833 34.7374 27.4199L36.8835 18.5136C37.1436 17.6495 36.9485 16.9184 36.4933 16.2538ZM30.3801 33.2023C30.9004 33.2023 31.2906 33.6011 31.2906 34.1328C31.2906 34.6646 30.9004 35.0633 30.3801 35.0633C29.8598 35.0633 29.4696 34.6646 29.4696 34.1328C29.4696 33.6011 29.8598 33.2023 30.3801 33.2023ZM21.8607 33.2023C22.3809 33.2023 22.7711 33.6011 22.7711 34.1328C22.7711 34.6646 22.3809 35.0633 21.8607 35.0633C21.3404 35.0633 20.9502 34.6646 20.9502 34.1328C20.9502 33.6011 21.3404 33.2023 21.8607 33.2023ZM18.4789 19.5105L18.0887 17.9818C18.0237 17.7825 18.0887 17.5831 18.1537 17.5166C18.2188 17.4501 18.3488 17.3172 18.609 17.3172H20.3649L20.8201 19.5105H18.4789ZM18.9992 21.438H21.2103L21.6656 23.4984H19.5845L18.9992 21.438ZM21.0152 27.3534C20.7551 27.3534 20.56 27.2205 20.4949 26.9546L20.1047 25.3595H22.0558L22.446 27.2869L21.0152 27.3534ZM25.6977 27.3534H24.397L24.0068 25.4259H25.7627L25.6977 27.3534ZM25.6977 23.4984H23.5515L23.0963 21.438H25.6977V23.4984ZM25.6977 19.5105H22.7061L22.2509 17.3172H25.7627V19.5105H25.6977ZM29.0794 27.3534H27.5836V25.4259H29.4696L29.0794 27.3534ZM29.8598 23.4984H27.5836V21.438H30.3151L29.8598 23.4984ZM27.5836 19.5105V17.3172H31.1605L30.7053 19.5105H27.5836ZM32.9815 26.8882C32.9164 27.154 32.7213 27.2869 32.4612 27.2869H31.0304L31.4206 25.3595H33.3717L32.9815 26.8882ZM33.7619 23.4984H31.8108L32.2661 21.438H34.3472L33.7619 23.4984ZM35.1276 17.9818L34.7374 19.5105H32.5912L33.0465 17.3172H34.6073C34.8674 17.3172 34.9975 17.4501 35.0625 17.5166C35.0625 17.5831 35.1926 17.7825 35.1276 17.9818Z" fill="#6D5E52"/>
</svg>
