<svg width="42" height="43" viewBox="0 0 42 43" fill="none" xmlns="http://www.w3.org/2000/svg">
<path d="M39.7091 0H2.32461C1.70809 0 1.11681 0.250605 0.680864 0.696693C0.244917 1.14278 0 1.74781 0 2.37867V40.6213C0 41.2522 0.244917 41.8572 0.680864 42.3033C1.11681 42.7494 1.70809 43 2.32461 43H20.9888V25.9816H15.969V19.7074H20.9888V15.1109C20.9888 9.54916 24.7508 6.52699 29.6022 6.52699C31.9268 6.52699 34.4198 6.71085 34.9925 6.79128V12.5369H31.1294C28.5016 12.5369 27.9963 13.8239 27.9963 15.6969V19.6959H34.2738L33.454 25.9701H27.9963V42.9885H39.6866C40.3012 42.9855 40.8896 42.7335 41.3231 42.2878C41.7566 41.842 42 41.2387 42 40.6098V2.37867C42.0001 1.75374 41.7598 1.15388 41.3311 0.708766C40.9024 0.263655 40.3198 0.00905704 39.7091 0Z" fill="#6D5E52"/>
</svg>
