<svg width="48" height="48" viewBox="0 0 48 48" fill="none" xmlns="http://www.w3.org/2000/svg">
<circle cx="24" cy="24" r="23.5" stroke="#6D5E52"/>
<g clip-path="url(#clip0)">
<path d="M38.8646 20.4031C38.5042 19.2983 37.5204 18.5844 36.3582 18.5844H28.8641L26.5041 11.4176C26.1414 10.3159 25.1596 9.60577 24.0008 9.60577C23.9971 9.60577 23.9933 9.60577 23.9896 9.60583C22.8261 9.6104 21.8447 10.3293 21.4895 11.4373L19.1984 18.5844H11.6418C10.4768 18.5844 9.49218 19.3007 9.13352 20.4091C8.77479 21.5175 9.15314 22.6748 10.0974 23.3574L16.2115 27.7767L13.8581 34.9237C13.4939 36.0298 13.8659 37.1887 14.8058 37.8761C15.2779 38.2215 15.8198 38.3942 16.362 38.3942C16.8993 38.3941 17.4369 38.2244 17.9066 37.8849L24.0313 33.458L30.0832 37.8774C31.0221 38.5631 32.238 38.5664 33.1808 37.8861C34.1236 37.2057 34.5034 36.0507 34.1485 34.9435L31.8509 27.7767L37.913 23.3498C38.8515 22.6645 39.2251 21.5078 38.8646 20.4031ZM36.8765 21.9304L29.79 27.1054L32.4747 35.48C32.6555 36.0436 32.2735 36.3732 32.1521 36.4608C32.0308 36.5484 31.5976 36.8071 31.1196 36.4579L24.0365 31.2854L16.877 36.4605C16.3965 36.8077 15.9644 36.5461 15.8434 36.4576C15.7224 36.369 15.342 36.0365 15.5275 35.4733L18.283 27.1053L11.127 21.933C10.6463 21.5854 10.7596 21.0929 10.8057 20.9502C10.8519 20.8075 11.0486 20.342 11.6418 20.342H20.4806L23.1633 11.9739C23.3441 11.4097 23.8469 11.364 23.9967 11.3633H23.9997C24.1532 11.3633 24.6508 11.4084 24.8348 11.9673L27.5925 20.342H36.3583C36.95 20.342 37.1474 20.806 37.1938 20.9482C37.2402 21.0905 37.3543 21.5815 36.8765 21.9304Z" fill="#6D5E52"/>
</g>
<defs>
<clipPath id="clip0">
<rect width="30" height="30" fill="white" transform="translate(9 9)"/>
</clipPath>
</defs>
</svg>
