<svg width="40" height="40" viewBox="0 0 40 40" fill="none" xmlns="http://www.w3.org/2000/svg">
<path d="M7.5 30.625C6.46625 30.625 5.625 31.4662 5.625 32.5C5.625 33.5338 6.46625 34.375 7.5 34.375C8.53375 34.375 9.375 33.5338 9.375 32.5C9.375 31.4662 8.53375 30.625 7.5 30.625ZM7.5 33.125C7.15562 33.125 6.875 32.845 6.875 32.5C6.875 32.155 7.15562 31.875 7.5 31.875C7.84437 31.875 8.125 32.155 8.125 32.5C8.125 32.845 7.84437 33.125 7.5 33.125Z" fill="#6D5E52"/>
<path d="M12.5 25.625C11.4662 25.625 10.625 26.4662 10.625 27.5C10.625 28.5338 11.4662 29.375 12.5 29.375C13.5338 29.375 14.375 28.5338 14.375 27.5C14.375 26.4662 13.5338 25.625 12.5 25.625ZM12.5 28.125C12.1556 28.125 11.875 27.845 11.875 27.5C11.875 27.155 12.1556 26.875 12.5 26.875C12.8444 26.875 13.125 27.155 13.125 27.5C13.125 27.845 12.8444 28.125 12.5 28.125Z" fill="#6D5E52"/>
<path d="M16.25 21.875C15.2162 21.875 14.375 22.7162 14.375 23.75C14.375 24.7838 15.2162 25.625 16.25 25.625C17.2838 25.625 18.125 24.7838 18.125 23.75C18.125 22.7162 17.2838 21.875 16.25 21.875ZM16.25 24.375C15.9056 24.375 15.625 24.095 15.625 23.75C15.625 23.405 15.9056 23.125 16.25 23.125C16.5944 23.125 16.875 23.405 16.875 23.75C16.875 24.095 16.5944 24.375 16.25 24.375Z" fill="#6D5E52"/>
<path d="M20 18.125C18.9662 18.125 18.125 18.9662 18.125 20C18.125 21.0338 18.9662 21.875 20 21.875C21.0338 21.875 21.875 21.0338 21.875 20C21.875 18.9662 21.0338 18.125 20 18.125ZM20 20.625C19.6556 20.625 19.375 20.345 19.375 20C19.375 19.655 19.6556 19.375 20 19.375C20.3444 19.375 20.625 19.655 20.625 20C20.625 20.345 20.3444 20.625 20 20.625Z" fill="#6D5E52"/>
<path d="M23.75 14.375C22.7162 14.375 21.875 15.2162 21.875 16.25C21.875 17.2838 22.7162 18.125 23.75 18.125C24.7838 18.125 25.625 17.2838 25.625 16.25C25.625 15.2162 24.7838 14.375 23.75 14.375ZM23.75 16.875C23.4056 16.875 23.125 16.595 23.125 16.25C23.125 15.905 23.4056 15.625 23.75 15.625C24.0944 15.625 24.375 15.905 24.375 16.25C24.375 16.595 24.0944 16.875 23.75 16.875Z" fill="#6D5E52"/>
<path d="M29.375 12.5C30.4088 12.5 31.25 11.6588 31.25 10.625C31.25 9.59125 30.4088 8.75 29.375 8.75C28.3412 8.75 27.5 9.59125 27.5 10.625C27.5 11.6588 28.3412 12.5 29.375 12.5ZM29.375 10C29.7194 10 30 10.28 30 10.625C30 10.97 29.7194 11.25 29.375 11.25C29.0306 11.25 28.75 10.97 28.75 10.625C28.75 10.28 29.0306 10 29.375 10Z" fill="#6D5E52"/>
<path d="M37.0394 28.57C37.6781 28.2706 38.125 27.6262 38.125 26.875C38.125 26.0613 37.6006 25.3737 36.875 25.115V8.38375L36.9388 8.32C38.0844 7.17438 38.8975 5.73812 39.29 4.16687C39.3462 3.94187 39.375 3.70937 39.375 3.47625C39.375 1.90375 38.0962 0.625 36.5238 0.625C36.2919 0.625 36.0594 0.65375 35.8325 0.710625C34.2606 1.10312 32.825 1.91688 31.6794 3.06188L0.99125 33.75C0.758125 33.9825 0.625 34.305 0.625 34.6338C0.625 37.2481 2.75188 39.375 5.36625 39.375C5.7 39.375 6.01375 39.245 6.25 39.0088L35.4306 9.82812C34.9444 13.5363 33.9881 17.16 32.5894 20.6344C32.5594 20.6325 32.5306 20.625 32.5 20.625C31.4662 20.625 30.625 21.4662 30.625 22.5C30.625 22.7469 30.6756 22.9813 30.7625 23.1975C29.9656 23.4131 29.375 24.1356 29.375 25C29.375 25.2206 29.42 25.4287 29.4906 25.6256C27.1713 26.5856 25.625 28.8762 25.625 31.3981V36.1275L28.9375 34.0569C30.7769 32.9075 31.875 30.9263 31.875 28.7575V26.76C32.6006 26.5013 33.125 25.8137 33.125 25C33.125 24.7531 33.0744 24.5187 32.9875 24.3025C33.7844 24.0862 34.375 23.3644 34.375 22.5C34.375 21.9463 34.1287 21.4525 33.7456 21.1094C34.4987 19.2406 35.1263 17.3294 35.625 15.3844V25.115C34.8994 25.3737 34.375 26.0613 34.375 26.875C34.375 27.6262 34.8219 28.2706 35.4606 28.57C33.9981 29.715 33.125 31.49 33.125 33.35C33.125 34.5531 33.4775 35.7181 34.145 36.7194L36.25 39.8769L38.355 36.7194C39.0225 35.7181 39.375 34.5531 39.375 33.35C39.375 31.49 38.5019 29.715 37.0394 28.57ZM30.5225 29.7213L30.1969 28.8062L30.625 28.0369V28.7575C30.625 29.0863 30.5837 29.4069 30.5225 29.7213ZM29.0531 32.3856L28.7913 31.3375L29.3888 30.2625L29.8181 31.4706C29.6019 31.8038 29.3463 32.11 29.0531 32.3856ZM27.13 29.8425L28.3188 29.615L27.6975 30.7337L26.9069 30.9975C26.9387 30.6012 27.0075 30.2131 27.13 29.8425ZM29.8625 26.8363L29.11 28.1912L27.8706 28.4287C28.3781 27.7431 29.0594 27.1912 29.8625 26.8363ZM26.875 32.3256L27.6825 32.0569L27.9656 33.1912L26.875 33.8719V32.3256ZM31.25 25.625C30.9056 25.625 30.625 25.345 30.625 25C30.625 24.655 30.9056 24.375 31.25 24.375C31.5944 24.375 31.875 24.655 31.875 25C31.875 25.345 31.5944 25.625 31.25 25.625ZM32.5 23.125C32.1556 23.125 31.875 22.845 31.875 22.5C31.875 22.155 32.1556 21.875 32.5 21.875C32.8444 21.875 33.125 22.155 33.125 22.5C33.125 22.845 32.8444 23.125 32.5 23.125ZM36.875 34.7412V33.3838L37.9775 34.4863C37.8937 34.8312 37.7788 35.1669 37.62 35.4863L36.875 34.7412ZM34.88 35.4863C34.7219 35.1669 34.6063 34.8312 34.5225 34.4856L35.625 33.3838V34.7412L34.88 35.4863ZM36.875 31.6162V30.1231C37.5513 30.8756 37.985 31.8256 38.095 32.8363L36.875 31.6162ZM30.8838 5.625L31.875 4.63375L35.3662 8.125L34.375 9.11625L30.8838 5.625ZM33.4912 10L28.75 14.7413L25.2588 11.25L30 6.50875L33.4912 10ZM36.135 1.92312C36.2631 1.89062 36.3937 1.875 36.5238 1.875C37.4069 1.875 38.125 2.59312 38.125 3.47625C38.125 3.60687 38.1087 3.7375 38.0769 3.865C37.7619 5.12625 37.1206 6.2775 36.2363 7.22812L32.7712 3.76312C33.7219 2.87937 34.8738 2.23812 36.135 1.92312ZM1.90437 35.0625C3.43812 35.3381 4.66188 36.5619 4.93813 38.0956C3.355 37.9012 2.09938 36.645 1.90437 35.0625ZM6.06938 37.4219C5.60813 35.7169 4.28312 34.3913 2.57812 33.9306L24.375 12.1337L27.8662 15.625L6.06938 37.4219ZM36.25 26.25C36.5944 26.25 36.875 26.53 36.875 26.875C36.875 27.22 36.5944 27.5 36.25 27.5C35.9056 27.5 35.625 27.22 35.625 26.875C35.625 26.53 35.9056 26.25 36.25 26.25ZM35.625 30.1225V31.6156L34.405 32.8356C34.515 31.8256 34.9487 30.875 35.625 30.1225ZM35.5544 36.5794L36.25 35.8838L36.9456 36.5794L36.25 37.6231L35.5544 36.5794Z" fill="#6D5E52"/>
</svg>
