<svg width="43" height="44" viewBox="0 0 43 44" fill="none" xmlns="http://www.w3.org/2000/svg">
<path d="M30.2083 3.62678C32.5617 3.63592 34.8161 4.5884 36.4791 6.27631C38.1422 7.96421 39.079 10.2505 39.085 12.636V30.6428C39.0831 31.8235 38.8517 32.9923 38.404 34.0823C37.9562 35.1724 37.3009 36.1623 36.4756 36.9954C35.6574 37.8372 34.6815 38.5048 33.6052 38.959C32.529 39.4133 31.3741 39.6449 30.2083 39.6405H12.432C10.0805 39.6313 7.82791 38.6804 6.16514 36.995C4.50238 35.3096 3.56425 33.0263 3.55525 30.6428V12.636C3.56125 10.2505 4.49806 7.96421 6.16114 6.27631C7.82423 4.5884 10.0785 3.63592 12.432 3.62678H30.2083ZM30.2083 0.0231054H12.432C9.13564 0.0322624 5.97702 1.36441 3.64719 3.72814C1.31737 6.09186 0.00601391 9.29471 0 12.636V30.6428C0.00902168 33.9821 1.32169 37.182 3.65119 39.5432C5.98069 41.9044 9.13761 43.235 12.432 43.2441H30.2083C33.5027 43.235 36.6596 41.9044 38.9891 39.5432C41.3186 37.182 42.6312 33.9821 42.6403 30.6428V12.636C42.6403 9.2907 41.3316 6.08194 39.0011 3.71322C36.6706 1.34451 33.5086 0.00917351 30.2083 0V0.0231054Z" fill="#6D5E52"/>
<path d="M32.863 12.636C32.3356 12.636 31.8201 12.4775 31.3816 12.1805C30.9431 11.8835 30.6014 11.4614 30.3995 10.9676C30.1977 10.4737 30.1449 9.93026 30.2478 9.40598C30.3507 8.8817 30.6046 8.40011 30.9775 8.02212C31.3504 7.64414 31.8256 7.38672 32.3428 7.28243C32.86 7.17815 33.3962 7.23167 33.8834 7.43624C34.3706 7.6408 34.7871 7.98723 35.0801 8.43169C35.3731 8.87616 35.5294 9.39871 35.5294 9.93326C35.5309 10.2886 35.463 10.6408 35.3295 10.9694C35.1961 11.298 34.9997 11.5965 34.7518 11.8478C34.5039 12.0991 34.2094 12.2981 33.8852 12.4334C33.561 12.5687 33.2136 12.6375 32.863 12.636ZM21.3198 14.4378C22.7266 14.4379 24.1018 14.8608 25.2714 15.6533C26.441 16.4458 27.3523 17.5721 27.8902 18.8897C28.428 20.2074 28.5681 21.6571 28.2928 23.0555C28.0176 24.4539 27.3392 25.7381 26.3437 26.7456C25.3481 27.7532 24.0801 28.4387 22.7 28.7155C21.32 28.9923 19.8899 28.8479 18.5909 28.3006C17.2918 27.7533 16.182 26.8277 15.4021 25.641C14.6222 24.4542 14.2071 23.0596 14.2093 21.6336C14.2123 19.7241 14.9628 17.8939 16.296 16.5447C17.6291 15.1956 19.436 14.4378 21.3198 14.4378ZM21.3198 10.8342C19.2098 10.8342 17.1473 11.4685 15.3931 12.657C13.6388 13.8454 12.2718 15.5345 11.4648 17.5107C10.6579 19.4868 10.4474 21.6611 10.8598 23.7586C11.2723 25.856 12.2893 27.7823 13.782 29.2938C15.2748 30.8053 17.1763 31.8341 19.246 32.2499C21.3157 32.6657 23.4606 32.45 25.4093 31.63C27.3581 30.8099 29.023 29.4225 30.1936 27.6431C31.3642 25.8637 31.9878 23.7724 31.9856 21.6336C31.9856 20.2145 31.7096 18.8092 31.1735 17.4982C30.6374 16.1872 29.8515 14.9962 28.861 13.9932C27.8704 12.9902 26.6945 12.195 25.4006 11.6529C24.1066 11.1109 22.7199 10.8327 21.3198 10.8342Z" fill="#6D5E52"/>
</svg>
