<svg width="43" height="44" viewBox="0 0 43 44" fill="none" xmlns="http://www.w3.org/2000/svg">
<path d="M30.2083 3.62678C32.5617 3.63592 34.8161 4.5884 36.4791 6.27631C38.1422 7.96421 39.079 10.2505 39.085 12.636V30.6428C39.0831 31.8235 38.8517 32.9923 38.404 34.0823C37.9562 35.1724 37.3009 36.1623 36.4756 36.9954C35.6574 37.8372 34.6815 38.5048 33.6052 38.959C32.529 39.4133 31.3741 39.6449 30.2083 39.6405H12.432C10.0805 39.6313 7.82791 38.6804 6.16514 36.995C4.50238 35.3096 3.56425 33.0263 3.55525 30.6428V12.636C3.56125 10.2505 4.49806 7.96421 6.16114 6.27631C7.82423 4.5884 10.0785 3.63592 12.432 3.62678H30.2083ZM30.2083 0.0231054H12.432C9.13564 0.0322624 5.97702 1.36441 3.64719 3.72814C1.31737 6.09186 0.00601391 9.29471 0 12.636V30.6428C0.00902168 33.9821 1.32169 37.182 3.65119 39.5432C5.98069 41.9044 9.13761 43.235 12.432 43.2441H30.2083C33.5027 43.235 36.6596 41.9044 38.9891 39.5432C41.3186 37.182 42.6312 33.9821 42.6403 30.6428V12.636C42.6403 9.2907 41.3316 6.08194 39.0011 3.71322C36.6706 1.34451 33.5086 0.00917351 30.2083 0V0.0231054Z" fill="#6D5E52"/>
</svg>
