<svg width="167" height="148" viewBox="0 0 167 148" fill="none" xmlns="http://www.w3.org/2000/svg">
<path d="M11.9668 138.338H5.5459L4.3252 142H0.431152L7.04736 124.227H10.4409L17.0938 142H13.1997L11.9668 138.338ZM6.53467 135.372H10.978L8.74414 128.719L6.53467 135.372ZM25.3335 135.494H22.416V142H18.7539V124.227H25.3579C27.4575 124.227 29.077 124.694 30.2163 125.63C31.3556 126.566 31.9253 127.889 31.9253 129.598C31.9253 130.81 31.6608 131.823 31.1318 132.637C30.611 133.443 29.8175 134.086 28.7515 134.566L32.5967 141.829V142H28.666L25.3335 135.494ZM22.416 132.527H25.3701C26.2897 132.527 27.0018 132.295 27.5063 131.832C28.0109 131.36 28.2632 130.713 28.2632 129.891C28.2632 129.052 28.0231 128.393 27.543 127.913C27.071 127.433 26.3426 127.193 25.3579 127.193H22.416V132.527ZM47.4893 127.193H42.0449V142H38.3828V127.193H33.0117V124.227H47.4893V127.193ZM52.897 135.811H46.0244V132.967H52.897V135.811ZM76.6519 142H72.9897V134.383H65.8486V142H62.1865V124.227H65.8486V131.429H72.9897V124.227H76.6519V142ZM83.7563 142H80.0942V124.227H83.7563V142ZM96.3784 137.337C96.3784 136.645 96.1343 136.116 95.646 135.75C95.1577 135.376 94.2788 134.985 93.0093 134.578C91.7397 134.163 90.7347 133.756 89.9941 133.357C87.9759 132.267 86.9668 130.798 86.9668 128.951C86.9668 127.99 87.2354 127.136 87.7725 126.387C88.3177 125.63 89.0949 125.04 90.104 124.617C91.1213 124.194 92.2606 123.982 93.522 123.982C94.7915 123.982 95.9227 124.214 96.9155 124.678C97.9084 125.134 98.6774 125.781 99.2227 126.619C99.776 127.457 100.053 128.41 100.053 129.476H96.3906C96.3906 128.662 96.1343 128.031 95.6216 127.583C95.1089 127.128 94.3887 126.9 93.4609 126.9C92.5658 126.9 91.87 127.091 91.3735 127.474C90.8771 127.848 90.6289 128.344 90.6289 128.963C90.6289 129.541 90.9178 130.025 91.4956 130.416C92.0815 130.806 92.9401 131.172 94.0713 131.514C96.1546 132.141 97.6724 132.918 98.6245 133.846C99.5767 134.773 100.053 135.929 100.053 137.312C100.053 138.851 99.4709 140.059 98.3071 140.938C97.1434 141.809 95.5768 142.244 93.6074 142.244C92.2402 142.244 90.9951 141.996 89.8721 141.5C88.749 140.995 87.8905 140.307 87.2964 139.437C86.7104 138.566 86.4175 137.557 86.4175 136.409H90.0918C90.0918 138.37 91.2637 139.351 93.6074 139.351C94.4782 139.351 95.1577 139.176 95.646 138.826C96.1343 138.468 96.3784 137.972 96.3784 137.337ZM106.205 135.738V142H102.543V124.227H109.477C110.811 124.227 111.983 124.471 112.992 124.959C114.009 125.447 114.791 126.143 115.336 127.046C115.881 127.942 116.154 128.963 116.154 130.11C116.154 131.852 115.556 133.227 114.359 134.236C113.171 135.237 111.523 135.738 109.416 135.738H106.205ZM106.205 132.771H109.477C110.445 132.771 111.181 132.544 111.686 132.088C112.199 131.632 112.455 130.981 112.455 130.135C112.455 129.264 112.199 128.56 111.686 128.023C111.173 127.486 110.465 127.209 109.562 127.193H106.205V132.771ZM126.542 138.338H120.121L118.9 142H115.006L121.623 124.227H125.016L131.669 142H127.775L126.542 138.338ZM121.11 135.372H125.553L123.319 128.719L121.11 135.372ZM147.782 142H144.12L136.991 130.306V142H133.329V124.227H136.991L144.132 135.945V124.227H147.782V142ZM165.58 133.516C165.58 135.266 165.271 136.8 164.652 138.118C164.034 139.437 163.147 140.454 161.991 141.17C160.844 141.886 159.525 142.244 158.036 142.244C156.563 142.244 155.249 141.89 154.093 141.182C152.938 140.474 152.042 139.465 151.408 138.155C150.773 136.836 150.451 135.323 150.443 133.614V132.735C150.443 130.985 150.757 129.447 151.383 128.121C152.018 126.786 152.909 125.765 154.057 125.057C155.212 124.34 156.531 123.982 158.012 123.982C159.493 123.982 160.807 124.34 161.955 125.057C163.11 125.765 164.001 126.786 164.628 128.121C165.263 129.447 165.58 130.981 165.58 132.723V133.516ZM161.869 132.71C161.869 130.847 161.535 129.431 160.868 128.462C160.201 127.494 159.249 127.01 158.012 127.01C156.783 127.01 155.835 127.49 155.167 128.45C154.5 129.402 154.162 130.802 154.154 132.649V133.516C154.154 135.331 154.488 136.739 155.155 137.74C155.823 138.741 156.783 139.241 158.036 139.241C159.265 139.241 160.209 138.761 160.868 137.801C161.527 136.832 161.861 135.424 161.869 133.577V132.71Z" fill="#6D5E52"/>
<path d="M104.901 5.58828L96.168 17.9688H87.0938H79.9063H70.8321L62.0992 5.58828C65.7649 4.27656 69.6461 3.59375 73.5633 3.59375H93.4367C97.3539 3.59375 101.235 4.27656 104.901 5.58828Z" fill="#6D5E52"/>
<path d="M87.0938 17.9688H79.9062H70.832L79.7625 30.6367L83.5 35.9375L87.2375 30.6367L96.168 17.9688H87.0938Z" fill="#6D5E52"/>
<path d="M119.294 105.351C118.413 101.416 117.695 97.4445 117.155 93.4375H115.844H94.2812H90.6875H72.7188H51.1562H49.8445C49.3055 97.4445 48.5867 101.416 47.7062 105.351C47.6164 105.8 47.5625 106.249 47.5625 106.68V107.076V107.112C47.5805 109.538 49.7367 111.406 52.1445 111.406H61.9375H83.5H105.062H114.855C117.263 111.406 119.42 109.538 119.438 107.112C119.438 107.094 119.438 107.076 119.438 107.076V106.68C119.438 106.249 119.384 105.8 119.294 105.351Z" fill="#6D5E52"/>
<path d="M137.406 42.9273L134.226 26.0008C132.878 18.7414 127.559 12.8477 120.48 10.7273L118.898 10.2422C123.624 13.1352 126.625 18.3281 126.625 24.0422V30.3492L121.486 28.6422C121.378 28.6062 121.288 28.5703 121.18 28.5344C119.222 27.8516 117.389 26.9531 115.682 25.8391C115.341 28.2828 114.442 30.6188 113.077 32.7031L108.656 39.3336L104.236 32.7031C102.439 29.9898 101.469 26.8094 101.469 23.557C101.469 19.8195 102.745 16.1719 105.08 13.2609L107.398 10.35C106.033 9.84688 105.062 8.51719 105.062 6.98984C105.062 6.48672 105.17 6.00156 105.368 5.55234C105.206 5.49844 105.062 5.44453 104.901 5.39062L96.168 17.7711L87.2375 30.4391L83.5 35.7398C86.4828 35.7398 88.8906 38.1477 88.8906 41.1305C88.8906 44.1133 86.4828 46.5211 83.5 46.5211C80.5172 46.5211 78.1094 44.1133 78.1094 41.1305C78.1094 38.1477 80.5172 35.7398 83.5 35.7398L79.7625 30.4391L70.832 17.7711L62.0992 5.39062C61.9375 5.44453 61.7938 5.49844 61.632 5.55234C61.8297 6.00156 61.9375 6.48672 61.9375 6.98984C61.9375 8.51719 60.9672 9.84688 59.6016 10.35L61.9195 13.2609C64.2555 16.1719 65.5312 19.8195 65.5312 23.557C65.5312 26.8094 64.5609 29.9898 62.7641 32.7031L58.3438 39.3336L53.9234 32.7031C52.5578 30.6188 51.6594 28.2828 51.318 25.8391C49.6109 26.9531 47.7781 27.8516 45.8195 28.5344V28.732C45.7117 28.768 45.6219 28.8039 45.5141 28.8398L40.375 30.5469V24.2398C40.375 18.5258 43.3758 13.3328 48.1016 10.4398L46.5203 10.925C39.4406 13.0453 34.1219 18.9391 32.7742 26.1984L29.5938 43.125C30.6898 45.3352 32.9539 46.7188 35.4156 46.7188H35.5055L33.1875 66.4844C35.4875 68.7844 38.6141 70.0781 41.8664 70.0781H42.8008L42.1719 80.8594C44.4539 83.1414 47.5266 84.4352 50.7609 84.4531L49.8445 93.4375H51.1562L115.844 93.2398H117.155C116.76 90.257 116.437 87.2562 116.239 84.2555C119.473 84.2375 122.546 82.9437 124.828 80.6617L124.199 69.8805H125.134C128.386 69.8805 131.512 68.5867 133.812 66.2867L131.495 46.5211H131.584C134.046 46.5211 136.31 45.1375 137.406 42.9273Z" fill="#DFB28B"/>
<path d="M90.6875 86.25C92.6723 86.25 94.2812 84.641 94.2812 82.6562C94.2812 80.6715 92.6723 79.0625 90.6875 79.0625C88.7027 79.0625 87.0938 80.6715 87.0938 82.6562C87.0938 84.641 88.7027 86.25 90.6875 86.25Z" fill="#6D5E52"/>
<path d="M90.6875 93.4375C92.6723 93.4375 94.2812 91.8285 94.2812 89.8438C94.2812 87.859 92.6723 86.25 90.6875 86.25C88.7027 86.25 87.0938 87.859 87.0938 89.8438C87.0938 91.8285 88.7027 93.4375 90.6875 93.4375Z" fill="#6D5E52"/>
<path d="M76.3125 79.0625C78.2973 79.0625 79.9062 77.4535 79.9062 75.4688C79.9062 73.484 78.2973 71.875 76.3125 71.875C74.3277 71.875 72.7188 73.484 72.7188 75.4688C72.7188 77.4535 74.3277 79.0625 76.3125 79.0625Z" fill="#6D5E52"/>
<path d="M76.3125 86.25C78.2973 86.25 79.9062 84.641 79.9062 82.6562C79.9062 80.6715 78.2973 79.0625 76.3125 79.0625C74.3277 79.0625 72.7188 80.6715 72.7188 82.6562C72.7188 84.641 74.3277 86.25 76.3125 86.25Z" fill="#6D5E52"/>
<path d="M83.5 46.7188C86.4772 46.7188 88.8906 44.3053 88.8906 41.3281C88.8906 38.351 86.4772 35.9375 83.5 35.9375C80.5228 35.9375 78.1094 38.351 78.1094 41.3281C78.1094 44.3053 80.5228 46.7188 83.5 46.7188Z" fill="#6D5E52"/>
<path d="M61.9195 13.4586C64.2555 16.3695 65.5312 20.0172 65.5312 23.7547C65.5312 27.007 64.5609 30.1875 62.7641 32.9008L58.3438 39.5312L53.9234 32.9008C52.5578 30.8164 51.6594 28.4805 51.318 26.0367C51.2102 25.282 51.1562 24.5273 51.1562 23.7547C51.1562 20.0172 52.432 16.3695 54.768 13.4586L57.0859 10.5476C57.4812 10.7094 57.8945 10.7812 58.3438 10.7812C58.793 10.7812 59.2063 10.7094 59.6016 10.5476L61.9195 13.4586Z" fill="#6D5E52"/>
<path d="M51.4258 8.89454L54.8039 7.76251C55.0016 9.05626 55.9 10.0984 57.0859 10.5477L54.768 13.4586C52.432 16.3695 51.1562 20.0172 51.1562 23.7547C51.1562 24.5273 51.2102 25.282 51.318 26.0367C49.6109 27.1508 47.7781 28.0492 45.8195 28.732C45.7117 28.768 45.6219 28.8039 45.5141 28.8398L40.375 30.5469V24.2398C40.375 18.5258 43.3758 13.3328 48.1016 10.4399C49.1258 9.81095 50.2398 9.28985 51.4258 8.89454Z" fill="#6D5E52"/>
<path d="M118.898 10.4399C123.624 13.3328 126.625 18.5258 126.625 24.2398V30.5469L121.486 28.8398C121.378 28.8039 121.288 28.768 121.18 28.732C119.222 28.0492 117.389 27.1508 115.682 26.0367C115.79 25.282 115.844 24.5273 115.844 23.7547C115.844 20.0172 114.568 16.3695 112.232 13.4586L109.914 10.5477C111.1 10.0984 111.998 9.05626 112.196 7.76251L115.574 8.89454C116.76 9.28985 117.874 9.81095 118.898 10.4399Z" fill="#6D5E52"/>
<path d="M112.232 13.4586C114.568 16.3695 115.844 20.0172 115.844 23.7547C115.844 24.5273 115.79 25.282 115.682 26.0367C115.341 28.4805 114.442 30.8164 113.077 32.9008L108.656 39.5312L104.236 32.9008C102.439 30.1875 101.469 27.007 101.469 23.7547C101.469 20.0172 102.745 16.3695 105.08 13.4586L107.398 10.5476C107.794 10.7094 108.207 10.7812 108.656 10.7812C109.105 10.7812 109.519 10.7094 109.914 10.5476L112.232 13.4586Z" fill="#6D5E52"/>
<path d="M61.632 5.75C61.8297 6.19922 61.9375 6.68438 61.9375 7.1875C61.9375 8.71484 60.9672 10.0445 59.6016 10.5477C59.2063 10.7094 58.793 10.7812 58.3438 10.7812C57.8945 10.7812 57.4812 10.7094 57.0859 10.5477C55.9 10.0984 55.0016 9.05625 54.8039 7.7625C54.768 7.58281 54.75 7.38516 54.75 7.1875C54.75 5.21094 56.3672 3.59375 58.3438 3.59375C59.8172 3.59375 61.075 4.49219 61.632 5.75Z" fill="#6D5E52"/>
<path d="M109.914 10.5477C109.519 10.7094 109.105 10.7812 108.656 10.7812C108.207 10.7812 107.794 10.7094 107.398 10.5477C106.033 10.0445 105.062 8.71484 105.062 7.1875C105.062 6.68438 105.17 6.19922 105.368 5.75C105.925 4.49219 107.183 3.59375 108.656 3.59375C110.633 3.59375 112.25 5.21094 112.25 7.1875C112.25 7.38516 112.232 7.58281 112.196 7.7625C111.998 9.05625 111.1 10.0984 109.914 10.5477Z" fill="#6D5E52"/>
<path d="M135.999 25.875C134.506 17.913 128.76 11.5234 121.003 9.19641L119.585 8.77055C118.507 8.13445 117.359 7.59539 116.135 7.1875L113.973 6.46695C113.617 3.83812 111.382 1.79688 108.656 1.79688C107.052 1.79688 105.625 2.51562 104.637 3.62969C101.016 2.43656 97.2587 1.79688 93.4332 1.79688H73.5669C69.7396 1.79688 65.9841 2.43656 62.3616 3.62969C61.3751 2.51562 59.9484 1.79688 58.3438 1.79688C55.6179 1.79688 53.3826 3.83812 53.0268 6.46695L50.8634 7.1875C49.6397 7.59539 48.4915 8.13445 47.4134 8.77055L45.9975 9.19461C38.2404 11.5234 32.494 17.913 31.0008 25.875L27.7161 43.3891L27.9856 43.93C29.1033 46.1635 31.1158 47.7124 33.52 48.273L31.3008 67.1402L31.9172 67.7566C34.3465 70.1859 37.509 71.6019 40.9033 71.8301L40.3319 81.5602L40.9015 82.1298C43.0758 84.304 45.8429 85.6642 48.8365 86.0919C48.2957 92.4402 47.3361 98.7545 45.9543 104.966C45.8304 105.532 45.7657 106.111 45.7657 106.689V107.131C45.7926 110.479 48.6551 113.203 52.1482 113.203H114.852C118.343 113.203 121.207 110.479 121.234 107.069V106.689C121.234 106.111 121.17 105.532 121.046 104.968C119.666 98.7545 118.706 92.4384 118.164 86.0919C121.157 85.6642 123.924 84.304 126.099 82.1298L126.668 81.5602L126.095 71.8283C129.491 71.6001 132.654 70.1841 135.081 67.7548L135.697 67.1384L133.48 48.282C135.854 47.7322 137.888 46.1779 139.013 43.9282L139.282 43.3873L135.999 25.875ZM124.828 24.2345V28.0528L122.045 27.1256C120.471 26.6009 118.976 25.8714 117.547 25.0251C117.576 24.601 117.641 24.1823 117.641 23.7547C117.641 22.7233 117.553 21.6973 117.378 20.6874L120.083 22.9425L122.383 20.1825L114.635 13.7263C114.32 13.2466 113.989 12.7776 113.63 12.3284L112.516 10.9358C112.789 10.6555 113.023 10.341 113.229 10.0068L114.999 10.5962C120.879 12.5566 124.828 18.037 124.828 24.2345ZM60.1407 23.3594V14.1073L60.5144 14.5727C62.5898 17.1691 63.7344 20.4305 63.7344 23.7547C63.7344 26.6656 62.8809 29.4849 61.2655 31.9089L58.3438 36.2915L55.4221 31.9089C53.8067 29.4867 52.9532 26.6656 52.9532 23.7547C52.9532 20.4305 54.0978 17.1691 56.1732 14.5727L56.5469 14.1073V23.3594H60.1407ZM52.4321 33.9034L58.3438 42.771L64.2555 33.9034C66.2662 30.8865 67.3282 27.3772 67.3282 23.7547C67.3282 19.6165 65.905 15.5591 63.3193 12.3266L62.2053 10.934C62.5 10.6303 62.7461 10.2871 62.9636 9.92234L80.5101 34.8127C78.0393 35.9519 76.3126 38.4352 76.3126 41.3281C76.3126 44.1115 77.9208 46.5031 80.2405 47.698C78.3161 50.1113 76.8588 52.8173 75.8939 55.7031H52.9532V53.2162C52.9532 48.6594 52.044 44.2265 50.2489 40.0398C48.8671 36.8144 48.0423 33.4165 47.7279 29.9305C48.5347 29.6017 49.3181 29.2244 50.089 28.8183C50.6047 30.6098 51.3809 32.3258 52.4321 33.9034ZM79.7068 55.7031C80.5747 53.5091 81.7768 51.4499 83.3078 49.6027C84.5297 51.52 85.5018 53.5684 86.2367 55.7031H79.7068ZM83.5001 44.9219C81.5181 44.9219 79.9063 43.3101 79.9063 41.3281C79.9063 39.3462 81.5181 37.7344 83.5001 37.7344C85.482 37.7344 87.0938 39.3462 87.0938 41.3281C87.0938 43.3101 85.482 44.9219 83.5001 44.9219ZM92.7018 19.7656L88.8907 25.1706V19.7656H92.7018ZM85.2969 30.2702L83.5001 32.8199L81.7032 30.2702V19.7656H85.2969V30.2702ZM78.1094 25.1706L74.2983 19.7656H78.1094V25.1706ZM52.9532 73.9504V59.2969H56.5469V66.4844H60.1407V59.2969H63.7344V73.6719H67.3282V59.2969H74.9613C74.6774 60.8566 74.5157 62.4504 74.5157 64.0712V70.4106C72.4295 71.1545 70.9219 73.131 70.9219 75.4705C70.9219 76.8559 71.4628 78.1084 72.3235 79.0643C71.461 80.0202 70.9219 81.2727 70.9219 82.658C70.9219 85.6301 73.3405 88.0487 76.3126 88.0487C79.2846 88.0487 81.7032 85.6301 81.7032 82.658C81.7032 81.2727 81.1623 80.0202 80.3016 79.0643C81.1641 78.1084 81.7032 76.8559 81.7032 75.4705C81.7032 73.131 80.1956 71.1545 78.1094 70.4106V64.0712C78.1094 62.445 78.2909 60.8512 78.6215 59.2969H81.7032V66.4844H85.2969V59.2969H87.2214C87.4693 60.5134 87.649 61.746 87.7389 62.9966L88.7847 77.6304C86.7506 78.403 85.2969 80.3562 85.2969 82.6562C85.2969 84.0416 85.8378 85.2941 86.6985 86.25C85.836 87.2059 85.2969 88.4584 85.2969 89.8438C85.2969 90.4762 85.4263 91.0764 85.6275 91.6406H51.8679C52.5812 85.7702 52.9532 79.8585 52.9532 73.9504ZM78.1094 82.6562C78.1094 83.6463 77.3026 84.4531 76.3126 84.4531C75.3225 84.4531 74.5157 83.6463 74.5157 82.6562C74.5157 81.6662 75.3225 80.8594 76.3126 80.8594C77.3026 80.8594 78.1094 81.6662 78.1094 82.6562ZM74.5157 75.4688C74.5157 74.4787 75.3225 73.6719 76.3126 73.6719C77.3026 73.6719 78.1094 74.4787 78.1094 75.4688C78.1094 76.4588 77.3026 77.2656 76.3126 77.2656C75.3225 77.2656 74.5157 76.4588 74.5157 75.4688ZM91.108 95.2344L83.5001 107.913L75.8921 95.2344H91.108ZM88.8907 89.8438C88.8907 88.8537 89.6975 88.0469 90.6875 88.0469C91.6776 88.0469 92.4844 88.8537 92.4844 89.8438C92.4844 90.8338 91.6776 91.6406 90.6875 91.6406C89.6975 91.6406 88.8907 90.8338 88.8907 89.8438ZM90.6875 84.4531C89.6975 84.4531 88.8907 83.6463 88.8907 82.6562C88.8907 81.6662 89.6975 80.8594 90.6875 80.8594C91.6776 80.8594 92.4844 81.6662 92.4844 82.6562C92.4844 83.6463 91.6776 84.4531 90.6875 84.4531ZM69.5455 95.2344L61.9375 107.913L54.3296 95.2344H69.5455ZM72.7188 96.9306L80.3268 109.609H65.1108L72.7188 96.9306ZM94.2813 96.9306L101.889 109.609H86.6733L94.2813 96.9306ZM97.4546 95.2344H112.671L105.063 107.913L97.4546 95.2344ZM95.7476 91.6406C95.9488 91.0764 96.0782 90.4762 96.0782 89.8438C96.0782 88.4584 95.5373 87.2059 94.6766 86.25C95.5391 85.2941 96.0782 84.0416 96.0782 82.6562C96.0782 80.279 94.5221 78.2791 92.382 77.5657L91.3236 62.7397C91.241 61.5789 91.0757 60.4325 90.8708 59.2969H99.6719V73.6719H103.266V59.2969H106.859V66.4844H110.453V59.2969H114.047V73.9504C114.047 79.8567 114.419 85.7702 115.132 91.6406H95.7476ZM114.047 53.2162V55.7031H90.0227C89.1926 52.9485 87.9922 50.3161 86.4523 47.8652C88.9428 46.7349 90.6875 44.2373 90.6875 41.3281C90.6875 38.4352 88.9608 35.9519 86.4918 34.8127L104.038 9.92234C104.256 10.2871 104.502 10.6321 104.797 10.9358L103.683 12.3284C101.095 15.5591 99.6719 19.6165 99.6719 23.7547C99.6719 27.3772 100.734 30.8865 102.745 33.9016L108.656 42.771L114.568 33.9034C115.619 32.3276 116.395 30.6116 116.911 28.8183C117.682 29.2226 118.465 29.6017 119.272 29.9305C118.96 33.4165 118.133 36.8144 116.751 40.0398C114.956 44.2247 114.047 48.6594 114.047 53.2162ZM106.486 14.5727L106.859 14.1073V23.3594H110.453V14.1073L110.827 14.5727C112.902 17.1691 114.047 20.4305 114.047 23.7547C114.047 26.6656 113.193 29.4849 111.578 31.9089L108.656 36.2915L105.735 31.9089C104.119 29.4867 103.266 26.6656 103.266 23.7547C103.266 20.4305 104.41 17.1691 106.486 14.5727ZM108.656 5.39062C109.646 5.39062 110.453 6.19742 110.453 7.1875C110.453 8.17758 109.646 8.98438 108.656 8.98438C107.666 8.98438 106.859 8.17758 106.859 7.1875C106.859 6.19742 107.666 5.39062 108.656 5.39062ZM93.4332 5.39062C96.3477 5.39062 99.2245 5.78234 102.015 6.555L95.2354 16.1719H71.7647L64.9851 6.555C67.7774 5.78234 70.6524 5.39062 73.5669 5.39062H93.4332ZM58.3438 5.39062C59.3339 5.39062 60.1407 6.19742 60.1407 7.1875C60.1407 8.17758 59.3339 8.98438 58.3438 8.98438C57.3537 8.98438 56.5469 8.17758 56.5469 7.1875C56.5469 6.19742 57.3537 5.39062 58.3438 5.39062ZM52.0008 10.5962L53.7708 10.0068C53.9774 10.341 54.211 10.6555 54.4823 10.9358L53.3683 12.3284C53.0089 12.7776 52.6783 13.2466 52.3638 13.7263L44.6157 20.1825L46.9157 22.9425L49.62 20.6874C49.4475 21.6973 49.3594 22.7233 49.3594 23.7547C49.3594 24.1823 49.4241 24.601 49.4529 25.0251C48.0243 25.8714 46.5293 26.6009 44.9535 27.1256L42.1719 28.0528V24.2345C42.1719 18.037 46.1215 12.5566 52.0008 10.5962ZM44.0155 80.1209L45.7621 50.4167L42.1755 50.2065L41.1154 68.2148C38.8818 68.0566 36.7795 67.2373 35.0779 65.7872L38.5638 36.1459L34.9952 35.7273L33.944 44.6613C32.945 44.3343 32.0681 43.7036 31.4787 42.807L34.5298 26.5345C35.2971 22.4412 37.421 18.8528 40.4505 16.2437C39.2484 18.6731 38.5782 21.3918 38.5782 24.2345V33.0409L44.2383 31.1542C44.6444 34.7012 45.5339 38.1602 46.9462 41.4557C48.5472 45.1914 49.3594 49.1481 49.3594 53.2162V73.9522C49.3594 76.802 49.266 79.6519 49.0953 82.4981C47.2193 82.1819 45.4692 81.3751 44.0155 80.1209ZM49.3594 107.069V106.689C49.3594 106.373 49.3954 106.057 49.4636 105.748C50.1141 102.817 50.6658 99.8631 51.1365 96.8947L58.7643 109.609H52.1482C50.6478 109.609 49.3702 108.461 49.3594 107.069ZM117.641 107.103C117.63 108.461 116.352 109.609 114.852 109.609H108.236L115.865 96.8947C116.336 99.8631 116.886 102.817 117.538 105.75C117.605 106.057 117.641 106.373 117.641 106.689V107.103ZM133.052 44.647L132.003 35.7273L128.435 36.1459L131.92 65.7872C130.219 67.2373 128.116 68.0566 125.883 68.2148L124.823 50.2065L121.236 50.4167L122.983 80.1209C121.529 81.3751 119.779 82.1819 117.903 82.4963C117.734 79.6501 117.641 76.8002 117.641 73.9504V53.2145C117.641 49.1463 118.453 45.1896 120.054 41.4539C121.466 38.1584 122.356 34.6995 122.762 31.1524L128.422 33.0391V24.2327C128.422 21.39 127.752 18.6713 126.548 16.2437C129.576 18.8528 131.699 22.4412 132.468 26.5345L135.52 42.807C134.937 43.6928 134.068 44.3163 133.052 44.647Z" fill="black"/>
<path d="M83.5001 102.422C84.4925 102.422 85.297 101.617 85.297 100.625C85.297 99.6326 84.4925 98.8281 83.5001 98.8281C82.5077 98.8281 81.7032 99.6326 81.7032 100.625C81.7032 101.617 82.5077 102.422 83.5001 102.422Z" fill="black"/>
<path d="M61.9375 102.422C62.9299 102.422 63.7344 101.617 63.7344 100.625C63.7344 99.6326 62.9299 98.8281 61.9375 98.8281C60.9451 98.8281 60.1406 99.6326 60.1406 100.625C60.1406 101.617 60.9451 102.422 61.9375 102.422Z" fill="black"/>
<path d="M105.062 102.422C106.055 102.422 106.859 101.617 106.859 100.625C106.859 99.6326 106.055 98.8281 105.062 98.8281C104.07 98.8281 103.266 99.6326 103.266 100.625C103.266 101.617 104.07 102.422 105.062 102.422Z" fill="black"/>
<path d="M94.2812 106.016C95.2736 106.016 96.0781 105.211 96.0781 104.219C96.0781 103.226 95.2736 102.422 94.2812 102.422C93.2889 102.422 92.4844 103.226 92.4844 104.219C92.4844 105.211 93.2889 106.016 94.2812 106.016Z" fill="black"/>
<path d="M72.7189 106.016C73.7113 106.016 74.5157 105.211 74.5157 104.219C74.5157 103.226 73.7113 102.422 72.7189 102.422C71.7265 102.422 70.922 103.226 70.922 104.219C70.922 105.211 71.7265 106.016 72.7189 106.016Z" fill="black"/>
</svg>
