<svg width="48" height="48" viewBox="0 0 48 48" fill="none" xmlns="http://www.w3.org/2000/svg">
<circle cx="24" cy="24" r="23.5" stroke="#6D5E52"/>
<path d="M36.4113 34.3038L34.2638 30.7263C33.2738 29.075 32.75 27.185 32.75 25.2588V22.125C32.75 17.3013 28.8238 13.375 24.0001 13.375C19.1763 13.375 15.2501 17.3013 15.2501 22.125V25.2588C15.2501 27.185 14.7263 29.075 13.7363 30.7263L11.5888 34.3038C11.4725 34.4962 11.47 34.7375 11.5801 34.9325C11.6913 35.1287 11.9 35.25 12.125 35.25H35.875C36.1 35.25 36.3088 35.1288 36.42 34.9325C36.53 34.7375 36.5276 34.4962 36.4113 34.3038ZM13.2288 34L14.8076 31.3687C15.9151 29.5237 16.5001 27.4113 16.5001 25.2588V22.125C16.5001 17.9887 19.8638 14.625 24.0001 14.625C28.1363 14.625 31.5001 17.9887 31.5001 22.125V25.2588C31.5001 27.4113 32.0851 29.5237 33.1913 31.3687L34.7713 34H13.2288Z" fill="#6D5E52"/>
<path d="M24 9C22.6213 9 21.5 10.1213 21.5 11.5V14C21.5 14.345 21.78 14.625 22.125 14.625C22.47 14.625 22.75 14.345 22.75 14V11.5C22.75 10.81 23.31 10.25 24 10.25C24.69 10.25 25.25 10.81 25.25 11.5V14C25.25 14.345 25.53 14.625 25.875 14.625C26.22 14.625 26.5001 14.345 26.5001 14V11.5C26.5001 10.1213 25.3788 9 24 9Z" fill="#6D5E52"/>
<path d="M26.705 34.3087C26.5288 34.0112 26.1475 33.9137 25.8488 34.085C25.55 34.26 25.45 34.6437 25.625 34.9412C25.7875 35.2175 25.8763 35.5487 25.8763 35.8749C25.8763 36.9087 25.035 37.7499 24.0013 37.7499C22.9675 37.7499 22.1263 36.9087 22.1263 35.8749C22.1263 35.5487 22.215 35.2175 22.3775 34.9412C22.5512 34.6424 22.4513 34.2599 22.1537 34.085C21.8525 33.9137 21.4725 34.0112 21.2975 34.3087C21.0212 34.7812 20.875 35.3225 20.875 35.875C20.8751 37.5987 22.2763 39 24 39C25.7238 39 27.125 37.5987 27.1275 35.875C27.1275 35.3225 26.9813 34.7812 26.705 34.3087Z" fill="#6D5E52"/>
</svg>
