<svg width="40" height="40" viewBox="0 0 40 40" fill="none" xmlns="http://www.w3.org/2000/svg">
<path d="M38.2606 9C37.7412 6.23062 35.7424 4.00813 33.0443 3.19875L32.5512 3.05063C32.1762 2.82938 31.7768 2.64188 31.3512 2.5L30.5993 2.24937C30.4755 1.335 29.6981 0.625 28.7499 0.625C28.1918 0.625 27.6956 0.875 27.3518 1.2625C26.0924 0.8475 24.7856 0.625 23.4549 0.625H16.5449C15.2137 0.625 13.9074 0.8475 12.6474 1.2625C12.3043 0.875 11.8081 0.625 11.2499 0.625C10.3018 0.625 9.5243 1.335 9.40055 2.24937L8.64805 2.5C8.22243 2.64188 7.82305 2.82938 7.44805 3.05063L6.95555 3.19813C4.25743 4.00813 2.25868 6.23062 1.7393 9L0.596802 15.0919L0.690552 15.28C1.0793 16.0569 1.7793 16.5956 2.61555 16.7906L1.84368 23.3531L2.05805 23.5675C2.90305 24.4125 4.00305 24.905 5.18368 24.9844L4.98493 28.3687L5.18305 28.5669C5.9393 29.3231 6.9018 29.7962 7.94305 29.945C7.75493 32.1531 7.42118 34.3494 6.94055 36.51C6.89743 36.7069 6.87493 36.9081 6.87493 37.1094V37.2631C6.8843 38.4275 7.87993 39.375 9.09493 39.375H30.9049C32.1193 39.375 33.1156 38.4275 33.1249 37.2412V37.1094C33.1249 36.9081 33.1024 36.7069 33.0593 36.5106C32.5793 34.3494 32.2456 32.1525 32.0568 29.945C33.098 29.7962 34.0606 29.3231 34.8168 28.5669L35.0149 28.3687L34.8156 24.9837C35.9968 24.9044 37.0968 24.4119 37.9412 23.5669L38.1556 23.3525L37.3843 16.7938C38.2099 16.6025 38.9174 16.0619 39.3087 15.2794L39.4024 15.0912L38.2606 9ZM34.3749 8.42938V9.7575L33.4068 9.435C32.8593 9.2525 32.3393 8.99875 31.8424 8.70438C31.8524 8.55688 31.8749 8.41125 31.8749 8.2625C31.8749 7.90375 31.8443 7.54687 31.7837 7.19562L32.7243 7.98L33.5243 7.02L30.8293 4.77437C30.7199 4.6075 30.6049 4.44438 30.4799 4.28813L30.0924 3.80375C30.1874 3.70625 30.2687 3.59687 30.3405 3.48062L30.9562 3.68562C33.0012 4.3675 34.3749 6.27375 34.3749 8.42938ZM11.8749 8.125V4.90687L12.0049 5.06875C12.7268 5.97187 13.1249 7.10625 13.1249 8.2625C13.1249 9.275 12.8281 10.2556 12.2662 11.0987L11.2499 12.6231L10.2337 11.0987C9.6718 10.2562 9.37493 9.275 9.37493 8.2625C9.37493 7.10625 9.77305 5.97187 10.4949 5.06875L10.6249 4.90687V8.125H11.8749ZM9.19368 11.7925L11.2499 14.8769L13.3062 11.7925C14.0056 10.7431 14.3749 9.5225 14.3749 8.2625C14.3749 6.82313 13.8799 5.41188 12.9806 4.2875L12.5931 3.80312C12.6956 3.6975 12.7812 3.57812 12.8568 3.45125L18.9599 12.1088C18.1006 12.505 17.4999 13.3687 17.4999 14.375C17.4999 15.3431 18.0593 16.175 18.8662 16.5906C18.1968 17.43 17.6899 18.3713 17.3543 19.375H9.37493V18.51C9.37493 16.925 9.05868 15.3831 8.4343 13.9269C7.95368 12.805 7.6668 11.6231 7.55743 10.4106C7.83805 10.2962 8.11055 10.165 8.37868 10.0238C8.55805 10.6469 8.82805 11.2437 9.19368 11.7925ZM18.6806 19.375C18.9824 18.6119 19.4006 17.8956 19.9331 17.2531C20.3581 17.92 20.6962 18.6325 20.9518 19.375H18.6806ZM19.9999 15.625C19.3106 15.625 18.7499 15.0644 18.7499 14.375C18.7499 13.6856 19.3106 13.125 19.9999 13.125C20.6893 13.125 21.2499 13.6856 21.2499 14.375C21.2499 15.0644 20.6893 15.625 19.9999 15.625ZM23.2006 6.875L21.8749 8.755V6.875H23.2006ZM20.6249 10.5288L19.9999 11.4156L19.3749 10.5288V6.875H20.6249V10.5288ZM18.1249 8.755L16.7993 6.875H18.1249V8.755ZM9.37493 25.7219V20.625H10.6249V23.125H11.8749V20.625H13.1249V25.625H14.3749V20.625H17.0299C16.9312 21.1675 16.8749 21.7219 16.8749 22.2856V24.4906C16.1493 24.7494 15.6249 25.4369 15.6249 26.2506C15.6249 26.7325 15.8131 27.1681 16.1124 27.5006C15.8124 27.8331 15.6249 28.2687 15.6249 28.7506C15.6249 29.7844 16.4662 30.6256 17.4999 30.6256C18.5337 30.6256 19.3749 29.7844 19.3749 28.7506C19.3749 28.2687 19.1868 27.8331 18.8874 27.5006C19.1874 27.1681 19.3749 26.7325 19.3749 26.2506C19.3749 25.4369 18.8506 24.7494 18.1249 24.4906V22.2856C18.1249 21.72 18.1881 21.1656 18.3031 20.625H19.3749V23.125H20.6249V20.625H21.2943C21.3806 21.0481 21.4431 21.4769 21.4743 21.9119L21.8381 27.0019C21.1306 27.2706 20.6249 27.95 20.6249 28.75C20.6249 29.2319 20.813 29.6675 21.1124 30C20.8124 30.3325 20.6249 30.7681 20.6249 31.25C20.6249 31.47 20.6699 31.6787 20.7399 31.875H8.99743C9.24555 29.8331 9.37493 27.7769 9.37493 25.7219ZM18.1249 28.75C18.1249 29.0944 17.8443 29.375 17.4999 29.375C17.1556 29.375 16.8749 29.0944 16.8749 28.75C16.8749 28.4056 17.1556 28.125 17.4999 28.125C17.8443 28.125 18.1249 28.4056 18.1249 28.75ZM16.8749 26.25C16.8749 25.9056 17.1556 25.625 17.4999 25.625C17.8443 25.625 18.1249 25.9056 18.1249 26.25C18.1249 26.5944 17.8443 26.875 17.4999 26.875C17.1556 26.875 16.8749 26.5944 16.8749 26.25ZM22.6462 33.125L19.9999 37.535L17.3537 33.125H22.6462ZM21.8749 31.25C21.8749 30.9056 22.1556 30.625 22.4999 30.625C22.8443 30.625 23.1249 30.9056 23.1249 31.25C23.1249 31.5944 22.8443 31.875 22.4999 31.875C22.1556 31.875 21.8749 31.5944 21.8749 31.25ZM22.4999 29.375C22.1556 29.375 21.8749 29.0944 21.8749 28.75C21.8749 28.4056 22.1556 28.125 22.4999 28.125C22.8443 28.125 23.1249 28.4056 23.1249 28.75C23.1249 29.0944 22.8443 29.375 22.4999 29.375ZM15.1462 33.125L12.4999 37.535L9.85368 33.125H15.1462ZM16.2499 33.715L18.8962 38.125H13.6037L16.2499 33.715ZM23.7499 33.715L26.3962 38.125H21.1037L23.7499 33.715ZM24.8537 33.125H30.1462L27.4999 37.535L24.8537 33.125ZM24.2599 31.875C24.3299 31.6787 24.3749 31.47 24.3749 31.25C24.3749 30.7681 24.1868 30.3325 23.8874 30C24.1874 29.6675 24.3749 29.2319 24.3749 28.75C24.3749 27.9231 23.8337 27.2275 23.0893 26.9794L22.7212 21.8225C22.6924 21.4188 22.6349 21.02 22.5637 20.625H25.6249V25.625H26.8749V20.625H28.1249V23.125H29.3749V20.625H30.6249V25.7219C30.6249 27.7762 30.7543 29.8331 31.0024 31.875H24.2599ZM30.6249 18.51V19.375H22.2687C21.9799 18.4169 21.5624 17.5013 21.0268 16.6488C21.8931 16.2556 22.4999 15.3869 22.4999 14.375C22.4999 13.3687 21.8993 12.505 21.0406 12.1088L27.1437 3.45125C27.2193 3.57812 27.3049 3.69812 27.4074 3.80375L27.0199 4.28813C26.1199 5.41188 25.6249 6.82313 25.6249 8.2625C25.6249 9.5225 25.9943 10.7431 26.6937 11.7919L28.7499 14.8769L30.8062 11.7925C31.1718 11.2444 31.4418 10.6475 31.6212 10.0238C31.8893 10.1644 32.1618 10.2962 32.4424 10.4106C32.3337 11.6231 32.0462 12.805 31.5656 13.9269C30.9412 15.3825 30.6249 16.925 30.6249 18.51ZM27.9949 5.06875L28.1249 4.90687V8.125H29.3749V4.90687L29.5049 5.06875C30.2268 5.97187 30.6249 7.10625 30.6249 8.2625C30.6249 9.275 30.3281 10.2556 29.7662 11.0987L28.7499 12.6231L27.7337 11.0987C27.1718 10.2562 26.8749 9.275 26.8749 8.2625C26.8749 7.10625 27.2731 5.97187 27.9949 5.06875ZM28.7499 1.875C29.0943 1.875 29.3749 2.15562 29.3749 2.5C29.3749 2.84437 29.0943 3.125 28.7499 3.125C28.4056 3.125 28.1249 2.84437 28.1249 2.5C28.1249 2.15562 28.4056 1.875 28.7499 1.875ZM23.4549 1.875C24.4687 1.875 25.4693 2.01125 26.4399 2.28L24.0818 5.625H15.9181L13.5599 2.28C14.5312 2.01125 15.5312 1.875 16.5449 1.875H23.4549ZM11.2499 1.875C11.5943 1.875 11.8749 2.15562 11.8749 2.5C11.8749 2.84437 11.5943 3.125 11.2499 3.125C10.9056 3.125 10.6249 2.84437 10.6249 2.5C10.6249 2.15562 10.9056 1.875 11.2499 1.875ZM9.04368 3.68562L9.6593 3.48062C9.73118 3.59687 9.81243 3.70625 9.9068 3.80375L9.5193 4.28813C9.3943 4.44438 9.2793 4.6075 9.16993 4.77437L6.47493 7.02L7.27493 7.98L8.21555 7.19562C8.15555 7.54687 8.12493 7.90375 8.12493 8.2625C8.12493 8.41125 8.14743 8.55688 8.15743 8.70438C7.66055 8.99875 7.14055 9.2525 6.59243 9.435L5.62493 9.7575V8.42938C5.62493 6.27375 6.99868 4.3675 9.04368 3.68562ZM6.26618 27.8681L6.87368 17.5363L5.62618 17.4631L5.25743 23.7269C4.48055 23.6719 3.7493 23.3869 3.15743 22.8825L4.36993 12.5725L3.12868 12.4269L2.76305 15.5344C2.41555 15.4206 2.11055 15.2013 1.90555 14.8894L2.9668 9.22937C3.23368 7.80562 3.97243 6.5575 5.02618 5.65C4.60805 6.495 4.37493 7.44063 4.37493 8.42938V11.4925L6.34368 10.8362C6.48493 12.07 6.7943 13.2731 7.28555 14.4194C7.84243 15.7187 8.12493 17.095 8.12493 18.51V25.7225C8.12493 26.7137 8.09243 27.705 8.03305 28.695C7.38055 28.585 6.7718 28.3044 6.26618 27.8681ZM8.12493 37.2412V37.1094C8.12493 36.9994 8.13743 36.8894 8.16118 36.7819C8.38743 35.7625 8.5793 34.735 8.74305 33.7025L11.3962 38.125H9.09493C8.57305 38.125 8.12868 37.7256 8.12493 37.2412ZM31.8749 37.2531C31.8712 37.7256 31.4268 38.125 30.9049 38.125H28.6037L31.2574 33.7025C31.4212 34.735 31.6124 35.7625 31.8393 36.7825C31.8624 36.8894 31.8749 36.9994 31.8749 37.1094V37.2531ZM37.2355 15.5294L36.8706 12.4269L35.6293 12.5725L36.8418 22.8825C36.2499 23.3869 35.5187 23.6719 34.7418 23.7269L34.3731 17.4631L33.1255 17.5363L33.7331 27.8681C33.2274 28.3044 32.6187 28.585 31.9662 28.6944C31.9074 27.7044 31.8749 26.7131 31.8749 25.7219V18.5094C31.8749 17.0944 32.1574 15.7181 32.7143 14.4187C33.2056 13.2725 33.5149 12.0694 33.6562 10.8356L35.6249 11.4919V8.42875C35.6249 7.44 35.3918 6.49437 34.9731 5.65C36.0262 6.5575 36.7649 7.80562 37.0324 9.22937L38.0937 14.8894C37.8912 15.1975 37.5887 15.4144 37.2355 15.5294Z" fill="#6D5E52"/>
</svg>
