<svg width="52" height="43" viewBox="0 0 52 43" fill="none" xmlns="http://www.w3.org/2000/svg">
<path d="M52 5.09905C50.0548 5.97639 47.9933 6.55792 45.8817 6.82495C48.1055 5.45732 49.7713 3.32135 50.575 0.807292C48.4779 2.07381 46.1827 2.96502 43.7895 3.44218C42.3276 1.85052 40.4286 0.74342 38.3398 0.264953C36.2509 -0.213513 34.0688 -0.0411864 32.0776 0.759503C30.0863 1.56019 28.378 2.95216 27.175 4.75427C25.9721 6.55637 25.3301 8.68515 25.3327 10.8636C25.331 11.6998 25.4221 12.5335 25.6042 13.3489C21.3594 13.1341 17.2066 12.0119 13.4166 10.0551C9.62656 8.0984 6.28434 5.35115 3.60766 1.99241C2.24839 4.38662 1.8356 7.21737 2.45313 9.90995C3.07065 12.6025 4.6722 14.9551 6.93259 16.49C5.23103 16.4549 3.56433 15.9925 2.08087 15.1438V15.2704C2.07902 17.779 2.93075 20.2109 4.49133 22.1531C6.05192 24.0953 8.22516 25.428 10.642 25.925C9.72712 26.1742 8.78441 26.3018 7.83732 26.3047C7.16175 26.3039 6.48772 26.2384 5.82423 26.1091C6.50599 28.2672 7.83435 30.1542 9.6231 31.5056C11.4118 32.8571 13.5713 33.6054 15.799 33.6455C12.0155 36.653 7.34583 38.2745 2.54459 38.2479C1.69397 38.2466 0.844219 38.1928 0 38.0869C4.85819 41.3052 10.5333 43.0126 16.3306 42.9999C35.9748 42.9999 46.7186 26.4427 46.7186 12.0717C46.7186 11.6 46.7186 11.1397 46.7186 10.6795C48.7882 9.15016 50.5762 7.26101 52 5.09905Z" fill="#6D5E52"/>
</svg>
