<svg width="40" height="40" viewBox="0 0 40 40" fill="none" xmlns="http://www.w3.org/2000/svg">
<g clip-path="url(#clip0)">
<path d="M40 17.5661C40 16.2132 39.6084 14.8996 38.8675 13.7673C38.645 13.4274 38.2311 13.2665 37.8372 13.3671L36.2187 13.7808C35.9043 13.8612 35.7145 14.1813 35.7949 14.4957C35.8753 14.8102 36.1955 14.9996 36.5098 14.9195L37.9702 14.5461C38.4496 15.3249 38.7341 16.2003 38.806 17.108L28.7061 19.5473C28.3906 19.6236 28.1966 19.941 28.2729 20.2565C28.3378 20.5256 28.5784 20.7063 28.8436 20.7063C28.8893 20.7063 28.9356 20.7009 28.982 20.6898L38.8249 18.3126L38.8248 24.0051H37.7785C37.4539 24.0051 37.1909 24.2682 37.1909 24.5927C37.1909 24.9173 37.4539 25.1804 37.7785 25.1804H38.8248V25.6586C38.8248 26.1937 38.3895 26.629 37.8546 26.629H34.4692V25.1804H35.2741C35.5987 25.1804 35.8617 24.9173 35.8617 24.5927C35.8617 24.2682 35.5987 24.0051 35.2741 24.0051H7.3542C5.9396 24.0051 4.53283 23.6521 3.28582 22.9843L1.17524 21.854V20.4922H13.5755C14.3256 20.4922 15.0744 20.3981 15.8013 20.2123L17.1491 19.8678C18.7861 21.191 20.8258 21.8973 22.899 21.8973C23.6112 21.8973 24.3275 21.8139 25.0324 21.6437L26.5399 21.2796C26.8554 21.2033 27.0494 20.8859 26.9731 20.5704C26.8969 20.2549 26.5797 20.0612 26.264 20.1372L24.7565 20.5012C22.6545 21.0088 20.44 20.6284 18.6354 19.488L34.0827 15.5398C34.3971 15.4594 34.5868 15.1393 34.5064 14.8249C34.4261 14.5106 34.1064 14.3207 33.7916 14.4011L21.8029 17.4653L21.8347 17.3251C22.1423 15.9715 21.9845 14.5351 21.3903 13.2806L21.1581 12.7906C21.033 12.5264 20.8008 12.3261 20.5213 12.2409C20.242 12.1556 19.9374 12.1924 19.6862 12.3419L16.6675 14.1374C16.1592 14.0473 15.6192 14.1321 15.1441 14.4119L13.8159 15.1943C13.3344 15.4779 12.9936 15.9193 12.8285 16.4209L11.1208 17.4366L1.52131 18.5975C0.654061 18.7024 0 19.4402 0 20.3138V24.3364C0 24.8382 0.246409 25.3082 0.658919 25.5936L1.33868 26.064C2.98371 27.2024 4.91063 27.8041 6.91121 27.8041H37.8544C39.0375 27.8041 39.9999 26.8416 39.9999 25.6585L40 17.5661ZM33.2938 26.629H31.1095V25.1804H33.2938V26.629ZM6.41808 26.6135C5.68833 26.5722 4.97292 26.4401 4.28509 26.2201V24.685C4.97668 24.9129 5.69287 25.0645 6.41808 25.1346V26.6135ZM7.59332 25.1804H9.77755V26.629H7.59332V25.1804ZM10.9528 25.1804H13.137V26.629H10.9528V25.1804ZM14.3123 25.1804H16.4965V26.629H14.3123V25.1804ZM17.6717 25.1804H19.856V26.629H17.6717V25.1804ZM21.0312 25.1804H23.2154V26.629H21.0312V25.1804ZM24.3907 25.1804H26.5749V26.629H24.3907V25.1804ZM27.7501 25.1804H29.9344V26.629H27.7501V25.1804ZM20.1595 13.4277L20.3281 13.7837C20.8101 14.8013 20.9382 15.9665 20.6887 17.0646L20.5233 17.7923L20.2333 17.8664L18.0604 14.9901C18.0046 14.9163 17.9448 14.8474 17.8819 14.7824L20.1595 13.4277ZM14.4123 16.2069L15.7405 15.4245C16.204 15.1515 16.7983 15.2691 17.1227 15.6986L18.9987 18.182L15.5102 19.0736C15.1712 19.1603 14.8265 19.2232 14.4792 19.2637L13.9344 17.4191C13.7965 16.9524 13.9931 16.4539 14.4123 16.2069ZM11.3851 18.5884C11.4664 18.5786 11.5446 18.5519 11.615 18.5101L12.8196 17.7936L13.2697 19.317H5.36075L11.3851 18.5884ZM1.32755 24.6272C1.23212 24.5612 1.17524 24.4525 1.17524 24.3365V23.1872L2.73095 24.0204C2.85576 24.0872 2.98237 24.1502 3.10985 24.2115V25.7459C2.72938 25.5584 2.36091 25.3424 2.00739 25.0978L1.32755 24.6272Z" fill="#6D5E52"/>
</g>
<defs>
<clipPath id="clip0">
<rect width="40" height="40" fill="white"/>
</clipPath>
</defs>
</svg>
