<svg width="40" height="40" viewBox="0 0 40 40" fill="none" xmlns="http://www.w3.org/2000/svg">
<path d="M2.7735 23.1708L3.60169 23.999L4.42989 23.1708C5.0278 22.5729 5.53685 21.8863 5.94431 21.1373C6.2711 21.7381 6.66451 22.298 7.11562 22.805V39.9903H32.8844V22.805C33.3355 22.298 33.7288 21.7382 34.0557 21.1373C34.4631 21.8862 34.9722 22.573 35.5701 23.1708L36.3983 23.999L37.2265 23.1708C39.9659 20.4316 39.9677 17.4552 40 17.3442L39.9742 17.1905C39.5027 14.372 35.0235 12.6739 29.8369 10.7077C27.8122 9.94015 22.7366 8.13906 21.4428 6.5325L25.2091 4.64935L24.1615 2.55404L21.1714 4.04909V0.00964355H18.8288V4.04909L15.8387 2.55404L14.791 4.64927L18.5573 6.53242C17.2632 8.1393 12.2049 9.93367 10.1632 10.7077C4.9765 12.6739 0.497259 14.372 0.0257688 17.1905L0 17.3442C0.0348269 17.4638 0.0217866 20.4193 2.7735 23.1708ZM23.5139 37.6477H16.4861V31.713C16.4861 29.7755 18.0624 28.1991 20 28.1991C21.9376 28.1991 23.5139 29.7755 23.5139 31.713V37.6477ZM25.8565 37.6477V31.713C25.8565 28.4837 23.2293 25.8565 20 25.8565C16.7707 25.8565 14.1435 28.4837 14.1435 31.713V37.6477H9.45823V22.805C9.90934 22.298 10.3027 21.7382 10.6295 21.1373C11.0369 21.8862 11.546 22.573 12.144 23.1708L12.9722 23.999L13.8003 23.1708C14.3983 22.5729 14.9073 21.8863 15.3148 21.1373C15.7221 21.8862 16.2313 22.573 16.8292 23.1708L17.6574 23.999L18.4856 23.1708C19.0835 22.5729 19.5925 21.8863 20 21.1373C20.4074 21.8862 20.9165 22.573 21.5144 23.1708L22.3426 23.999L23.1708 23.1708C23.7687 22.5729 24.2778 21.8863 24.6852 21.1373C25.0926 21.8862 25.6017 22.573 26.1997 23.1708L27.0278 23.999L27.856 23.1708C28.454 22.5729 28.963 21.8863 29.3705 21.1373C29.6973 21.7381 30.0907 22.298 30.5418 22.805V37.6477H25.8565ZM10.9935 12.8982C14.8128 11.4503 18.2676 10.1407 20 8.42518C21.7324 10.1407 25.1872 11.4503 29.0065 12.8982C30.8536 13.5984 37.0225 15.7737 37.6338 17.4658C37.6309 17.4768 37.5329 18.9546 36.4122 20.5224C35.8253 19.6441 35.4507 18.6234 35.3142 17.5143L35.1877 16.486H32.9236L32.797 17.5142C32.6616 18.6145 32.2918 19.6279 31.713 20.5014C31.1341 19.6278 30.7644 18.6145 30.629 17.5143L30.5025 16.486H28.2384L28.1118 17.5142C27.9764 18.6145 27.6065 19.6279 27.0278 20.5014C26.4489 19.6278 26.0792 18.6145 25.9438 17.5143L25.8173 16.486H23.5531L23.4265 17.5142C23.2911 18.6145 22.9213 19.6279 22.3425 20.5014C21.7637 19.6278 21.3939 18.6145 21.2585 17.5143L21.132 16.486H18.8679L18.7413 17.5142C18.6059 18.6145 18.2361 19.6279 17.6573 20.5014C17.0784 19.6278 16.7087 18.6145 16.5733 17.5143L16.4468 16.486H14.1827L14.0561 17.5142C13.9207 18.6145 13.5509 19.6279 12.9721 20.5014C12.3932 19.6278 12.0235 18.6145 11.8881 17.5143L11.7616 16.486H9.49743L9.37085 17.5142C9.23545 18.6145 8.86563 19.6279 8.28685 20.5014C7.70798 19.6278 7.33824 18.6145 7.20284 17.5143L7.07634 16.486H4.81228L4.6857 17.5142C4.5492 18.6234 4.17454 19.6441 3.58764 20.5224C2.4763 18.9675 2.36823 17.4737 2.36612 17.4658C2.97684 15.7754 9.13089 13.6043 10.9935 12.8982Z" fill="#6D5E52"/>
</svg>
