<svg width="15" height="15" viewBox="0 0 15 15" fill="none" xmlns="http://www.w3.org/2000/svg">
<path d="M14.6957 13.23L11.5258 10.0596C12.2962 8.98797 12.7198 7.70738 12.7198 6.35939C12.7198 4.66145 12.0588 3.0646 10.8564 1.86333C9.65669 0.662588 8.05875 0 6.35971 0C4.66118 0 3.06376 0.661033 1.86297 1.86333C0.662184 3.06356 0.000610352 4.66093 0.000610352 6.35939C0.000610352 8.05786 0.661666 9.65471 1.86297 10.8565C3.06376 12.0572 4.66066 12.7198 6.35971 12.7198C7.70722 12.7198 8.98682 12.2983 10.0595 11.5258L13.2295 14.6962C13.4327 14.8989 13.6972 15 13.9626 15C14.2286 15 14.4935 14.8989 14.6957 14.6962C15.1007 14.2908 15.1007 13.6349 14.6957 13.23ZM3.32974 9.38978C2.51988 8.57995 2.07451 7.50311 2.07451 6.35888C2.07451 5.21464 2.51988 4.13884 3.32974 3.32901C4.13908 2.51918 5.21491 2.07331 6.35971 2.07331C7.5045 2.07331 8.58085 2.51918 9.39019 3.32901C10.2001 4.13884 10.6459 5.21516 10.6459 6.35939C10.6459 7.50363 10.2006 8.57995 9.39019 9.3903C8.58033 10.2001 7.50502 10.645 6.35971 10.645C5.21439 10.645 4.13804 10.1991 3.32974 9.38978Z" fill="#6D5E52" fill-opacity="0.8"/>
</svg>
