<svg width="65" height="65" viewBox="0 0 65 65" fill="none" xmlns="http://www.w3.org/2000/svg">
<circle cx="32.5" cy="32.5" r="32" stroke="#6D5E52"/>
<path d="M32 33C37.4321 33 42 27.6122 42 21C42 14.3878 40.5185 9 32 9C23.4815 9 22 14.3878 22 21C22 27.6122 26.5679 33 32 33Z" fill="#6D5E52"/>
<path d="M50 49.1117C49.7632 38.1371 48.3421 34.9848 37.2105 33C37.2105 33 35.6711 34.9848 32 34.9848C28.3289 34.9848 26.7895 33 26.7895 33C15.7763 34.9848 14.2368 38.0203 14 48.7614C14 49.5787 14 49.6954 14 49.5787C14 49.8122 14 50.1624 14 50.7462C14 50.7462 16.6053 56 32 56C47.3947 56 50 50.7462 50 50.7462C50 50.3959 50 50.0457 50 49.9289C50 49.9289 50 49.8122 50 49.1117Z" fill="#6D5E52"/>
</svg>
